<svg width="14" height="18" viewBox="0 0 14 18" fill="none" xmlns="http://www.w3.org/2000/svg">
<path fill-rule="evenodd" clip-rule="evenodd" d="M8.60536 0.867457C8.36773 0.595538 8.07226 0.377131 7.73937 0.227353C7.40648 0.0775738 7.04414 0 6.67742 0C6.3107 0 5.94836 0.0775738 5.61547 0.227353C5.28258 0.377131 4.9871 0.595538 4.74948 0.867457L4.71404 0.908526C4.62734 1.00754 4.51772 1.08509 4.39421 1.13479C4.2707 1.18448 4.13682 1.2049 4.00361 1.19437L3.94877 1.19026C3.58337 1.16175 3.21597 1.21085 2.87198 1.33415C2.52799 1.45745 2.21561 1.65201 1.95644 1.90439C1.69728 2.15676 1.49752 2.46093 1.37097 2.79585C1.24442 3.13076 1.1941 3.48844 1.2235 3.84415L1.22687 3.89754C1.23769 4.02722 1.21672 4.15755 1.16567 4.27779C1.11462 4.39803 1.03496 4.50474 0.933252 4.58915L0.891066 4.62364C0.611746 4.85497 0.387395 5.14262 0.23354 5.46669C0.0796852 5.79076 0 6.1435 0 6.50051C0 6.85751 0.0796852 7.21025 0.23354 7.53432C0.387395 7.85839 0.611746 8.14604 0.891066 8.37737L0.933252 8.41187C1.03496 8.49627 1.11462 8.60298 1.16567 8.72322C1.21672 8.84346 1.23769 8.97379 1.22687 9.10347L1.22265 9.15686C1.1724 9.76767 1.35756 10.3748 1.74205 10.86C2.12654 11.3451 2.68282 11.6735 3.30247 11.7812V17.1785C3.30245 17.3272 3.34389 17.4731 3.42238 17.6007C3.50088 17.7283 3.61347 17.8327 3.74816 17.9029C3.88285 17.973 4.03457 18.0062 4.18714 17.999C4.33971 17.9918 4.48741 17.9444 4.61448 17.8619L6.67742 16.523L8.74036 17.8619C8.86742 17.9444 9.01512 17.9918 9.1677 17.999C9.32027 18.0062 9.47199 17.973 9.60668 17.9029C9.74136 17.8327 9.85396 17.7283 9.93245 17.6007C10.0109 17.4731 10.0524 17.3272 10.0524 17.1785V11.782C10.6722 11.6743 11.2286 11.3458 11.6131 10.8605C11.9976 10.3751 12.1827 9.7678 12.1322 9.15686L12.128 9.10347C12.1171 8.97379 12.1381 8.84346 12.1892 8.72322C12.2402 8.60298 12.3199 8.49627 12.4216 8.41187L12.4638 8.37737C12.7431 8.14604 12.9674 7.85839 13.1213 7.53432C13.2752 7.21025 13.3548 6.85751 13.3548 6.50051C13.3548 6.1435 13.2752 5.79076 13.1213 5.46669C12.9674 5.14262 12.7431 4.85497 12.4638 4.62364L12.4216 4.58915C12.3199 4.50474 12.2402 4.39803 12.1892 4.27779C12.1381 4.15755 12.1171 4.02722 12.128 3.89754L12.1322 3.84415C12.1615 3.48843 12.111 3.13077 11.9844 2.79589C11.8577 2.46101 11.6579 2.15691 11.3986 1.90461C11.1394 1.65231 10.8269 1.45784 10.4829 1.33464C10.1389 1.21145 9.77146 1.16246 9.40607 1.19108L9.35122 1.19437C9.21802 1.2049 9.08414 1.18448 8.96063 1.13479C8.83712 1.08509 8.7275 1.00754 8.6408 0.908526L8.60536 0.867457ZM4.98994 15.6441V12.3734C5.45419 12.7771 6.0549 13.0003 6.67742 13.0003C7.29994 13.0003 7.90065 12.7771 8.36489 12.3734V15.6425L7.14569 14.8515C7.00704 14.7615 6.8441 14.7134 6.67742 14.7134C6.51074 14.7134 6.3478 14.7615 6.20914 14.8515L4.98994 15.6441ZM8.96142 6.25984C9.11511 6.10493 9.20016 5.89744 9.19823 5.68208C9.19631 5.46671 9.10758 5.2607 8.95114 5.10841C8.7947 4.95612 8.58308 4.86973 8.36186 4.86786C8.14063 4.86599 7.9275 4.94878 7.76837 5.0984L5.83368 6.98184L5.58647 6.74117C5.42734 6.59155 5.21421 6.50876 4.99298 6.51063C4.77175 6.5125 4.56013 6.59889 4.4037 6.75118C4.24726 6.90347 4.15853 7.10948 4.15661 7.32485C4.15468 7.54021 4.23973 7.74769 4.39342 7.90261L5.23716 8.72399C5.39538 8.87798 5.60995 8.96448 5.83368 8.96448C6.05741 8.96448 6.27198 8.87798 6.4302 8.72399L8.96142 6.25984Z" fill="#7BAAD0"/>
</svg>
