<svg width="22" height="28" viewBox="0 0 22 28" fill="none" xmlns="http://www.w3.org/2000/svg">
<path fill-rule="evenodd" clip-rule="evenodd" d="M14.176 1.34938C13.7845 0.926393 13.2978 0.586649 12.7494 0.35366C12.201 0.12067 11.6041 0 11 0C10.3959 0 9.79898 0.12067 9.2506 0.35366C8.70223 0.586649 8.21547 0.926393 7.82402 1.34938L7.76564 1.41326C7.62282 1.56729 7.44224 1.68792 7.23877 1.76522C7.0353 1.84253 6.81477 1.87429 6.59533 1.85791L6.50498 1.85152C5.90304 1.80717 5.29781 1.88354 4.73114 2.07534C4.16446 2.26714 3.64987 2.5698 3.22293 2.96238C2.796 3.35497 2.46692 3.82811 2.25845 4.34909C2.04998 4.87008 1.96709 5.42647 2.01552 5.97979L2.02108 6.06284C2.03891 6.26456 2.00435 6.4673 1.92026 6.65434C1.83616 6.84138 1.70494 7.00738 1.53739 7.13867L1.46789 7.19234C1.00776 7.55218 0.638173 7.99964 0.384721 8.50374C0.131269 9.00785 0 9.55656 0 10.1119C0 10.6672 0.131269 11.216 0.384721 11.7201C0.638173 12.2242 1.00776 12.6716 1.46789 13.0315L1.53739 13.0851C1.70494 13.2164 1.83616 13.3824 1.92026 13.5695C2.00435 13.7565 2.03891 13.9592 2.02108 14.161L2.01413 14.244C1.93134 15.1942 2.23636 16.1386 2.86975 16.8933C3.50314 17.648 4.41952 18.1588 5.4403 18.3263V26.7221C5.44026 26.9534 5.50854 27.1804 5.63784 27.3789C5.76715 27.5773 5.95263 27.7397 6.1745 27.8489C6.39638 27.958 6.64632 28.0097 6.89766 27.9985C7.149 27.9873 7.39231 27.9135 7.60163 27.7852L11 25.7025L14.3984 27.7852C14.6077 27.9135 14.851 27.9873 15.1023 27.9985C15.3537 28.0097 15.6036 27.958 15.8255 27.8489C16.0474 27.7397 16.2329 27.5773 16.3622 27.3789C16.4915 27.1804 16.5597 26.9534 16.5597 26.7221V18.3276C17.5807 18.1601 18.4973 17.649 19.1307 16.8941C19.7642 16.1391 20.069 15.1944 19.9859 14.244L19.9789 14.161C19.9611 13.9592 19.9956 13.7565 20.0797 13.5695C20.1638 13.3824 20.2951 13.2164 20.4626 13.0851L20.5321 13.0315C20.9922 12.6716 21.3618 12.2242 21.6153 11.7201C21.8687 11.216 22 10.6672 22 10.1119C22 9.55656 21.8687 9.00785 21.6153 8.50374C21.3618 7.99964 20.9922 7.55218 20.5321 7.19234L20.4626 7.13867C20.2951 7.00738 20.1638 6.84138 20.0797 6.65434C19.9956 6.4673 19.9611 6.26456 19.9789 6.06284L19.9859 5.97979C20.0341 5.42645 19.951 4.87009 19.7424 4.34916C19.5337 3.82824 19.2045 3.35519 18.7774 2.96273C18.3504 2.57026 17.8357 2.26775 17.2689 2.07611C16.7022 1.88447 16.0969 1.80828 15.495 1.8528L15.4047 1.85791C15.1852 1.87429 14.9647 1.84253 14.7612 1.76522C14.5578 1.68792 14.3772 1.56729 14.2344 1.41326L14.176 1.34938ZM8.22015 24.3353V19.2475C8.98492 19.8756 9.9745 20.2227 11 20.2227C12.0255 20.2227 13.0151 19.8756 13.7799 19.2475V24.3328L11.7714 23.1024C11.543 22.9623 11.2746 22.8875 11 22.8875C10.7254 22.8875 10.457 22.9623 10.2286 23.1024L8.22015 24.3353ZM14.7625 9.73753C15.0157 9.49655 15.1558 9.1738 15.1526 8.83879C15.1495 8.50378 15.0033 8.18331 14.7456 7.94642C14.4879 7.70952 14.1393 7.57514 13.7748 7.57223C13.4104 7.56932 13.0593 7.69811 12.7972 7.93085L9.61007 10.8606L9.20283 10.4863C8.94068 10.2535 8.58959 10.1247 8.22515 10.1276C7.86072 10.1306 7.51211 10.2649 7.2544 10.5018C6.9967 10.7387 6.85052 11.0592 6.84736 11.3942C6.84419 11.7292 6.98429 12.052 7.23747 12.2929L8.6274 13.5707C8.88805 13.8102 9.24152 13.9447 9.61007 13.9447C9.97863 13.9447 10.3321 13.8102 10.5928 13.5707L14.7625 9.73753Z" fill="white"/>
</svg>
