<svg width="52" height="12" viewBox="0 0 52 12" fill="none" xmlns="http://www.w3.org/2000/svg">
<path d="M7.45192 0.0143422L8.72307 0.275982L8.79287 0.290324L8.77854 0.360155C8.28739 2.744 6.98199 4.30286 5.47417 5.2759H9.2756C11.318 2.38859 15.1748 0.868783 19.05 0.744817V2.18516C15.5232 2.30815 12.2426 3.67765 10.5292 5.99997C12.2426 8.32229 15.5232 9.69171 19.05 9.8147V11.255C15.1748 11.1311 11.318 9.61135 9.2756 6.72404H5.47417C6.98199 7.69707 8.28739 9.25593 8.77854 11.6398L8.79287 11.7096L8.72307 11.724L7.45192 11.9856L7.38212 12L7.36779 11.9302C6.9194 9.75381 5.67515 8.45168 4.27664 7.68538L4.20991 7.64931C3.03962 7.02435 1.76897 6.77124 0.789679 6.72404H0.0368118L0.0365335 6.71276L0 6.71095L0.00173969 6.64146L0.0182319 5.99997L0.00173969 5.35847L0 5.28898L0.0365335 5.2871L0.0368118 5.2759H0.789679C1.76897 5.22869 3.03962 4.97558 4.20991 4.35062L4.27664 4.31455C5.67514 3.54825 6.9194 2.24611 7.36779 0.0697614L7.38212 0L7.45192 0.0143422Z" fill="#FB654F"/>
<path d="M29.8531 6C29.8531 8.07107 28.1406 9.75 26.0281 9.75C23.9156 9.75 22.2031 8.07107 22.2031 6C22.2031 3.92893 23.9156 2.25 26.0281 2.25C28.1406 2.25 29.8531 3.92893 29.8531 6Z" fill="#FB654F"/>
<path d="M44.4543 0.0143422L43.1832 0.275982L43.1134 0.290324L43.1277 0.360155C43.6189 2.744 44.9243 4.30286 46.4321 5.2759H42.6307C40.5882 2.38859 36.7315 0.868783 32.8562 0.744817V2.18516C36.3831 2.30815 39.6636 3.67765 41.3771 5.99997C39.6637 8.32229 36.3831 9.69171 32.8562 9.8147V11.255C36.7315 11.1311 40.5883 9.61135 42.6307 6.72404H46.4321C44.9243 7.69707 43.6189 9.25593 43.1277 11.6398L43.1134 11.7096L43.1832 11.724L44.4543 11.9856L44.5241 12L44.5385 11.9302C44.9868 9.75381 46.2311 8.45168 47.6296 7.68538L47.6963 7.64931C48.8666 7.02435 50.1373 6.77124 51.1166 6.72404H51.8694L51.8697 6.71276L51.9062 6.71095L51.9045 6.64146L51.888 5.99997L51.9045 5.35847L51.9062 5.28898L51.8697 5.2871L51.8694 5.2759H51.1166C50.1373 5.22869 48.8666 4.97558 47.6963 4.35062L47.6296 4.31455C46.2311 3.54825 44.9868 2.24611 44.5385 0.0697614L44.5241 0L44.4543 0.0143422Z" fill="#FB654F"/>
</svg>
