<svg width="16" height="16" viewBox="0 0 16 16" fill="none" xmlns="http://www.w3.org/2000/svg">
<path d="M14.7368 13.1765C15.0612 13.1767 15.3731 13.3163 15.6079 13.5665C15.8427 13.8167 15.9823 14.1583 15.9979 14.5204C16.0135 14.8825 15.9038 15.2375 15.6916 15.5117C15.4794 15.7859 15.181 15.9584 14.8581 15.9934L14.7368 16H1.26316C0.938765 15.9998 0.626868 15.8602 0.392095 15.61C0.157323 15.3598 0.0176741 15.0182 0.00208483 14.6561C-0.0135044 14.2939 0.0961615 13.939 0.308358 13.6648C0.520555 13.3905 0.819015 13.218 1.14189 13.1831L1.26316 13.1765H14.7368ZM14.7368 6.58824C15.0719 6.58824 15.3931 6.73697 15.63 7.00173C15.8669 7.26649 16 7.62558 16 8C16 8.37442 15.8669 8.73351 15.63 8.99827C15.3931 9.26303 15.0719 9.41177 14.7368 9.41177H1.26316C0.928148 9.41177 0.606858 9.26303 0.36997 8.99827C0.133082 8.73351 0 8.37442 0 8C0 7.62558 0.133082 7.26649 0.36997 7.00173C0.606858 6.73697 0.928148 6.58824 1.26316 6.58824H14.7368ZM14.7368 0C15.0719 0 15.3931 0.148739 15.63 0.413496C15.8669 0.678254 16 1.03734 16 1.41176C16 1.78619 15.8669 2.14528 15.63 2.41003C15.3931 2.67479 15.0719 2.82353 14.7368 2.82353H1.26316C0.928148 2.82353 0.606858 2.67479 0.36997 2.41003C0.133082 2.14528 0 1.78619 0 1.41176C0 1.03734 0.133082 0.678254 0.36997 0.413496C0.606858 0.148739 0.928148 0 1.26316 0H14.7368Z" fill="white"/>
</svg>
