<svg width="24" height="28" viewBox="0 0 24 28" fill="none" xmlns="http://www.w3.org/2000/svg">
<path d="M23.6809 7.85346L16.0445 0.315C15.9432 0.215025 15.8228 0.135748 15.6904 0.0816996C15.558 0.0276509 15.416 -0.000110908 15.2727 3.32983e-07H2.18182C1.60316 3.32983e-07 1.04821 0.226923 0.63904 0.630847C0.229869 1.03477 0 1.58261 0 2.15385V25.8462C0 26.4174 0.229869 26.9652 0.63904 27.3692C1.04821 27.7731 1.60316 28 2.18182 28H21.8182C22.3968 28 22.9518 27.7731 23.361 27.3692C23.7701 26.9652 24 26.4174 24 25.8462V8.61539C24.0001 8.47392 23.972 8.33382 23.9172 8.20309C23.8625 8.07235 23.7822 7.95355 23.6809 7.85346ZM16.0445 19.6996C16.1459 19.7997 16.2263 19.9185 16.2812 20.0492C16.336 20.1799 16.3642 20.32 16.3642 20.4615C16.3642 20.603 16.336 20.7432 16.2812 20.8739C16.2263 21.0046 16.1459 21.1234 16.0445 21.2235C15.9432 21.3235 15.8229 21.4029 15.6904 21.457C15.558 21.5112 15.4161 21.5391 15.2727 21.5391C15.1294 21.5391 14.9875 21.5112 14.855 21.457C14.7226 21.4029 14.6023 21.3235 14.5009 21.2235L12 18.7533L9.49909 21.2235C9.39773 21.3235 9.27741 21.4029 9.14498 21.457C9.01255 21.5112 8.87061 21.5391 8.72727 21.5391C8.58393 21.5391 8.442 21.5112 8.30957 21.457C8.17714 21.4029 8.05681 21.3235 7.95545 21.2235C7.8541 21.1234 7.7737 21.0046 7.71884 20.8739C7.66399 20.7432 7.63576 20.603 7.63576 20.4615C7.63576 20.32 7.66399 20.1799 7.71884 20.0492C7.7737 19.9185 7.8541 19.7997 7.95545 19.6996L10.4577 17.2308L7.95545 14.7619C7.75076 14.5598 7.63576 14.2858 7.63576 14C7.63576 13.7142 7.75076 13.4402 7.95545 13.2381C8.16015 13.036 8.43779 12.9225 8.72727 12.9225C9.01676 12.9225 9.29439 13.036 9.49909 13.2381L12 15.7083L14.5009 13.2381C14.6023 13.138 14.7226 13.0587 14.855 13.0045C14.9875 12.9503 15.1294 12.9225 15.2727 12.9225C15.4161 12.9225 15.558 12.9503 15.6904 13.0045C15.8229 13.0587 15.9432 13.138 16.0445 13.2381C16.1459 13.3381 16.2263 13.4569 16.2812 13.5877C16.336 13.7184 16.3642 13.8585 16.3642 14C16.3642 14.1415 16.336 14.2816 16.2812 14.4124C16.2263 14.5431 16.1459 14.6619 16.0445 14.7619L13.5423 17.2308L16.0445 19.6996ZM15.2727 8.61539V2.69231L21.2727 8.61539H15.2727Z" fill="white"/>
</svg>
