<svg width="16" height="16" viewBox="0 0 16 16" fill="none" xmlns="http://www.w3.org/2000/svg">
<mask id="mask0_837_622" style="mask-type:alpha" maskUnits="userSpaceOnUse" x="0" y="0" width="16" height="16">
<rect width="16" height="16" fill="#D9D9D9"/>
</mask>
<g mask="url(#mask0_837_622)">
<path d="M7.99967 10.3334C7.35801 10.3334 6.80873 10.1049 6.35184 9.64787C5.89484 9.19098 5.66634 8.64171 5.66634 8.00004C5.66634 7.35837 5.89484 6.8091 6.35184 6.35221C6.80873 5.89521 7.35801 5.66671 7.99967 5.66671C8.64134 5.66671 9.19062 5.89521 9.64751 6.35221C10.1045 6.8091 10.333 7.35837 10.333 8.00004C10.333 8.64171 10.1045 9.19098 9.64751 9.64787C9.19062 10.1049 8.64134 10.3334 7.99967 10.3334ZM7.99967 9.33337C8.36634 9.33337 8.68023 9.20282 8.94134 8.94171C9.20245 8.6806 9.33301 8.36671 9.33301 8.00004C9.33301 7.63337 9.20245 7.31948 8.94134 7.05837C8.68023 6.79726 8.36634 6.66671 7.99967 6.66671C7.63301 6.66671 7.31912 6.79726 7.05801 7.05837C6.7969 7.31948 6.66634 7.63337 6.66634 8.00004C6.66634 8.36671 6.7969 8.6806 7.05801 8.94171C7.31912 9.20282 7.63301 9.33337 7.99967 9.33337ZM3.54034 13.6667C3.20212 13.6667 2.91634 13.55 2.68301 13.3167C2.44967 13.0834 2.33301 12.7976 2.33301 12.4594V10H3.33301V12.4615C3.33301 12.5129 3.3544 12.5599 3.39717 12.6025C3.43984 12.6453 3.48684 12.6667 3.53817 12.6667H5.99967V13.6667H3.54034ZM9.99967 13.6667V12.6667H12.4612C12.5125 12.6667 12.5595 12.6453 12.6022 12.6025C12.645 12.5599 12.6663 12.5129 12.6663 12.4615V10H13.6663V12.4594C13.6663 12.7976 13.5497 13.0834 13.3163 13.3167C13.083 13.55 12.7972 13.6667 12.459 13.6667H9.99967ZM2.33301 6.00004V3.54071C2.33301 3.20249 2.44967 2.91671 2.68301 2.68337C2.91634 2.45004 3.20212 2.33337 3.54034 2.33337H5.99967V3.33337H3.53817C3.48684 3.33337 3.43984 3.35476 3.39717 3.39754C3.3544 3.44021 3.33301 3.48721 3.33301 3.53854V6.00004H2.33301ZM12.6663 6.00004V3.53854C12.6663 3.48721 12.645 3.44021 12.6022 3.39754C12.5595 3.35476 12.5125 3.33337 12.4612 3.33337H9.99967V2.33337H12.459C12.7972 2.33337 13.083 2.45004 13.3163 2.68337C13.5497 2.91671 13.6663 3.20249 13.6663 3.54071V6.00004H12.6663Z" fill="#796F64"/>
</g>
</svg>
