<svg width="22" height="28" viewBox="0 0 22 28" fill="none" xmlns="http://www.w3.org/2000/svg">
<path fill-rule="evenodd" clip-rule="evenodd" d="M0 2.33333V25.6667C0 26.2855 0.245833 26.879 0.683418 27.3166C1.121 27.7542 1.71449 28 2.33333 28H19.4444C20.0633 28 20.6568 27.7542 21.0944 27.3166C21.5319 26.879 21.7778 26.2855 21.7778 25.6667V2.33333C21.7778 1.71449 21.5319 1.121 21.0944 0.683418C20.6568 0.245833 20.0633 0 19.4444 0H2.33333C1.71449 0 1.121 0.245833 0.683418 0.683418C0.245833 1.121 0 1.71449 0 2.33333ZM10.8889 7C10.8889 6.79372 10.9708 6.59589 11.1167 6.45003C11.2626 6.30417 11.4604 6.22222 11.6667 6.22222H17.8889C18.0952 6.22222 18.293 6.30417 18.4389 6.45003C18.5847 6.59589 18.6667 6.79372 18.6667 7C18.6667 7.20628 18.5847 7.40411 18.4389 7.54997C18.293 7.69583 18.0952 7.77778 17.8889 7.77778H11.6667C11.4604 7.77778 11.2626 7.69583 11.1167 7.54997C10.9708 7.40411 10.8889 7.20628 10.8889 7ZM11.6667 9.33333C11.4604 9.33333 11.2626 9.41528 11.1167 9.56114C10.9708 9.707 10.8889 9.90483 10.8889 10.1111C10.8889 10.3174 10.9708 10.5152 11.1167 10.6611C11.2626 10.8069 11.4604 10.8889 11.6667 10.8889H17.8889C18.0952 10.8889 18.293 10.8069 18.4389 10.6611C18.5847 10.5152 18.6667 10.3174 18.6667 10.1111C18.6667 9.90483 18.5847 9.707 18.4389 9.56114C18.293 9.41528 18.0952 9.33333 17.8889 9.33333H11.6667ZM10.8889 17.1111C10.8889 16.9048 10.9708 16.707 11.1167 16.5611C11.2626 16.4153 11.4604 16.3333 11.6667 16.3333H17.8889C18.0952 16.3333 18.293 16.4153 18.4389 16.5611C18.5847 16.707 18.6667 16.9048 18.6667 17.1111C18.6667 17.3174 18.5847 17.5152 18.4389 17.6611C18.293 17.8069 18.0952 17.8889 17.8889 17.8889H11.6667C11.4604 17.8889 11.2626 17.8069 11.1167 17.6611C10.9708 17.5152 10.8889 17.3174 10.8889 17.1111ZM11.6667 19.4444C11.4604 19.4444 11.2626 19.5264 11.1167 19.6722C10.9708 19.8181 10.8889 20.0159 10.8889 20.2222C10.8889 20.4285 10.9708 20.6263 11.1167 20.7722C11.2626 20.9181 11.4604 21 11.6667 21H17.8889C18.0952 21 18.293 20.9181 18.4389 20.7722C18.5847 20.6263 18.6667 20.4285 18.6667 20.2222C18.6667 20.0159 18.5847 19.8181 18.4389 19.6722C18.293 19.5264 18.0952 19.4444 17.8889 19.4444H11.6667ZM4.66667 17.1111V19.4444H7V17.1111H4.66667ZM3.88889 15.5556H7.77778C7.98406 15.5556 8.18189 15.6375 8.32775 15.7834C8.47361 15.9292 8.55556 16.1271 8.55556 16.3333V20.2222C8.55556 20.4285 8.47361 20.6263 8.32775 20.7722C8.18189 20.9181 7.98406 21 7.77778 21H3.88889C3.68261 21 3.48478 20.9181 3.33892 20.7722C3.19306 20.6263 3.11111 20.4285 3.11111 20.2222V16.3333C3.11111 16.1271 3.19306 15.9292 3.33892 15.7834C3.48478 15.6375 3.68261 15.5556 3.88889 15.5556ZM9.10544 7.54989C9.24712 7.4032 9.32552 7.20673 9.32375 7.0028C9.32197 6.79887 9.24018 6.60379 9.09597 6.45959C8.95176 6.31538 8.75669 6.23358 8.55276 6.23181C8.34883 6.23004 8.15236 6.30843 8.00567 6.45011L5.44444 9.01133L4.43878 8.00567C4.29209 7.86399 4.09562 7.78559 3.89169 7.78736C3.68776 7.78914 3.49268 7.87093 3.34847 8.01514C3.20427 8.15935 3.12247 8.35442 3.1207 8.55836C3.11893 8.76229 3.19732 8.95875 3.339 9.10544L5.44444 11.2109L9.10544 7.54989Z" fill="white"/>
</svg>
