<svg width="26" height="20" viewBox="0 0 26 20" fill="none" xmlns="http://www.w3.org/2000/svg">
<path fill-rule="evenodd" clip-rule="evenodd" d="M9.26383 11.7787L12.9193 14.3587L16.4429 11.8493L24.3415 19.8933C24.1335 19.9627 23.9113 20 23.6801 20H2.15321C1.86904 20 1.59779 19.9427 1.3485 19.84L9.26383 11.7787ZM25.8333 5.168V17.7773C25.8333 18.1067 25.7636 18.4187 25.6396 18.7L17.8973 10.8147L25.8333 5.168ZM1.21882e-06 5.23867L7.80425 10.748L0.136918 18.5587C0.0461083 18.3088 -0.000274135 18.0442 1.21882e-06 17.7773V5.23867ZM23.6801 0C24.8685 0 25.8333 0.994666 25.8333 2.22267V3.004L12.9141 12.1973L1.21882e-06 3.08V2.22267C1.21882e-06 0.996 0.963585 0 2.15321 0H23.6801Z" fill="#dde9f2"/>
</svg>
