<svg width="20" height="20" viewBox="0 0 20 20" fill="none" xmlns="http://www.w3.org/2000/svg">
<mask id="mask0_592_396" style="mask-type:alpha" maskUnits="userSpaceOnUse" x="0" y="0" width="20" height="20">
<rect width="20" height="20" fill="#D9D9D9"/>
</mask>
<g mask="url(#mask0_592_396)">
<path d="M10.0023 12.9808C10.9466 12.9808 11.7486 12.6503 12.4083 11.9894C13.068 11.3284 13.3979 10.5258 13.3979 9.58146C13.3979 8.63715 13.0674 7.83514 12.4064 7.17542C11.7455 6.51569 10.9428 6.18583 9.99851 6.18583C9.05421 6.18583 8.25219 6.51632 7.59247 7.17729C6.93275 7.83826 6.60289 8.6409 6.60289 9.58521C6.60289 10.5295 6.93337 11.3315 7.59435 11.9913C8.25532 12.651 9.05796 12.9808 10.0023 12.9808ZM10.0004 11.8333C9.37539 11.8333 8.84414 11.6146 8.40664 11.1771C7.96914 10.7396 7.75039 10.2083 7.75039 9.58333C7.75039 8.95833 7.96914 8.42708 8.40664 7.98958C8.84414 7.55208 9.37539 7.33333 10.0004 7.33333C10.6254 7.33333 11.1566 7.55208 11.5941 7.98958C12.0316 8.42708 12.2504 8.95833 12.2504 9.58333C12.2504 10.2083 12.0316 10.7396 11.5941 11.1771C11.1566 11.6146 10.6254 11.8333 10.0004 11.8333ZM10.0014 15.4167C8.08518 15.4167 6.33914 14.8881 4.7633 13.8308C3.18747 12.7738 2.02719 11.3579 1.28247 9.58333C2.02719 7.80875 3.18705 6.39292 4.76205 5.33583C6.33719 4.27861 8.08296 3.75 9.99935 3.75C11.9156 3.75 13.6616 4.27861 15.2375 5.33583C16.8133 6.39292 17.9736 7.80875 18.7183 9.58333C17.9736 11.3579 16.8137 12.7738 15.2387 13.8308C13.6636 14.8881 11.9178 15.4167 10.0014 15.4167ZM10.0004 14.1667C11.5698 14.1667 13.0108 13.7535 14.3233 12.9271C15.6358 12.1007 16.6393 10.9861 17.3337 9.58333C16.6393 8.18056 15.6358 7.06597 14.3233 6.23958C13.0108 5.41319 11.5698 5 10.0004 5C8.43094 5 6.98997 5.41319 5.67747 6.23958C4.36497 7.06597 3.3615 8.18056 2.66705 9.58333C3.3615 10.9861 4.36497 12.1007 5.67747 12.9271C6.98997 13.7535 8.43094 14.1667 10.0004 14.1667Z" fill="#796F64"/>
</g>
</svg>
