<svg width="21" height="20" viewBox="0 0 21 20" fill="none" xmlns="http://www.w3.org/2000/svg">
<mask id="mask0_1130_7682" style="mask-type:alpha" maskUnits="userSpaceOnUse" x="0" y="0" width="21" height="20">
<rect x="0.333374" width="20" height="20" fill="#D9D9D9"/>
</mask>
<g mask="url(#mask0_1130_7682)">
<path d="M10.3255 16.4246C10.147 16.4246 9.96779 16.3926 9.78779 16.3285C9.60779 16.2644 9.44939 16.164 9.31258 16.0273L8.1155 14.9392C6.638 13.5919 5.31883 12.2685 4.158 10.9688C2.99716 9.66903 2.41675 8.27667 2.41675 6.79167C2.41675 5.60903 2.8155 4.61889 3.613 3.82125C4.41064 3.02375 5.40078 2.625 6.58341 2.625C7.25536 2.625 7.91911 2.77993 8.57466 3.08979C9.23008 3.39965 9.81633 3.90285 10.3334 4.59938C10.8505 3.90285 11.4367 3.39965 12.0922 3.08979C12.7477 2.77993 13.4115 2.625 14.0834 2.625C15.2661 2.625 16.2562 3.02375 17.0538 3.82125C17.8513 4.61889 18.2501 5.60903 18.2501 6.79167C18.2501 8.29278 17.6598 9.70063 16.4792 11.0152C15.2987 12.3298 13.9824 13.642 12.5305 14.9519L11.3461 16.0273C11.2095 16.164 11.0498 16.2644 10.8672 16.3285C10.6844 16.3926 10.5038 16.4246 10.3255 16.4246Z" fill="#796F64"/>
</g>
</svg>
