<svg width="53" height="12" viewBox="0 0 53 12" fill="none" xmlns="http://www.w3.org/2000/svg">
<path d="M7.99879 0.0143422L9.26995 0.275982L9.33975 0.290324L9.32541 0.360155C8.83427 2.744 7.52886 4.30286 6.02105 5.2759H9.82247C11.8649 2.38859 15.7217 0.868783 19.5969 0.744817V2.18516C16.0701 2.30815 12.7895 3.67765 11.076 5.99997C12.7895 8.32229 16.0701 9.69171 19.5969 9.8147V11.255C15.7217 11.1311 11.8649 9.61135 9.82247 6.72404H6.02105C7.52887 7.69707 8.83427 9.25593 9.32541 11.6398L9.33975 11.7096L9.26995 11.724L7.99879 11.9856L7.929 12L7.91466 11.9302C7.46628 9.75381 6.22202 8.45168 4.82352 7.68538L4.75678 7.64931C3.58649 7.02435 2.31584 6.77124 1.33655 6.72404H0.583687L0.583408 6.71276L0.546875 6.71095L0.548615 6.64146L0.565107 5.99997L0.548615 5.35847L0.546875 5.28898L0.583408 5.2871L0.583687 5.2759H1.33655C2.31584 5.22869 3.58649 4.97558 4.75678 4.35062L4.82352 4.31455C6.22202 3.54825 7.46628 2.24611 7.91466 0.0697614L7.929 0L7.99879 0.0143422Z" fill="#524B43"/>
<path d="M30.4 6.00098C30.4 8.07205 28.6875 9.75098 26.575 9.75098C24.4625 9.75098 22.75 8.07205 22.75 6.00098C22.75 3.92991 24.4625 2.25098 26.575 2.25098C28.6875 2.25098 30.4 3.92991 30.4 6.00098Z" fill="#524B43"/>
<path d="M45.0012 0.0143422L43.7301 0.275982L43.6603 0.290324L43.6746 0.360155C44.1657 2.744 45.4711 4.30286 46.979 5.2759H43.1775C41.1351 2.38859 37.2783 0.868783 33.4031 0.744817V2.18516C36.9299 2.30815 40.2105 3.67765 41.924 5.99997C40.2105 8.32229 36.9299 9.69171 33.4031 9.8147V11.255C37.2783 11.1311 41.1351 9.61135 43.1775 6.72404H46.979C45.4711 7.69707 44.1657 9.25593 43.6746 11.6398L43.6603 11.7096L43.7301 11.724L45.0012 11.9856L45.071 12L45.0853 11.9302C45.5337 9.75381 46.778 8.45168 48.1765 7.68538L48.2432 7.64931C49.4135 7.02435 50.6842 6.77124 51.6634 6.72404H52.4163L52.4166 6.71276L52.4531 6.71095L52.4514 6.64146L52.4349 5.99997L52.4514 5.35847L52.4531 5.28898L52.4166 5.2871L52.4163 5.2759H51.6634C50.6842 5.22869 49.4135 4.97558 48.2432 4.35062L48.1765 4.31455C46.778 3.54825 45.5337 2.24611 45.0853 0.0697614L45.071 0L45.0012 0.0143422Z" fill="#524B43"/>
</svg>
