<svg width="201" height="37" viewBox="0 0 201 37" fill="none" xmlns="http://www.w3.org/2000/svg">
<path d="M83.7081 9.27946C83.7081 7.2979 84.3339 5.15626 85.7113 3.48109C87.1215 1.76607 89.2616 0.617188 92.0677 0.617188C96.8228 0.617206 99.3503 4.41886 99.3503 7.87699H96.3706C96.3706 5.7253 94.8612 3.58713 92.0677 3.58711C90.1561 3.58711 88.8612 4.33569 88.0159 5.36371C87.1379 6.43159 86.6878 7.8786 86.6878 9.27946C86.6878 10.3966 87.0028 11.7522 87.4466 13.0549C87.7105 13.8295 88.0061 14.5455 88.2723 15.1271C90.2508 15.6859 91.6098 16.7283 92.9265 17.6217C93.8659 18.2592 94.7936 18.836 95.9926 19.2673C97.1874 19.6971 98.7159 20.0042 100.841 20.0042V22.9741C98.4143 22.9741 96.5386 22.6212 94.9811 22.061C93.428 21.5023 92.2553 20.7591 91.2496 20.0767C89.2641 18.7294 87.9881 17.6942 85.1979 17.6942C82.9518 17.6942 81.7189 18.5337 80.3128 19.5532C79.605 20.3412 79.4819 21.3063 79.7544 22.0289C80.0116 22.711 80.7039 23.3866 82.1355 23.3866V26.3565C79.5699 26.3565 77.6956 25.0109 76.9651 23.0737C76.7149 22.4099 76.61 21.7036 76.6475 20.9975C75.9302 21.1001 75.1575 21.1137 74.3886 20.9693C73.1902 20.7443 72.0041 20.1312 71.1451 18.9257C70.3066 17.749 69.8845 16.155 69.8845 14.1468H72.8642C72.8642 15.7685 73.2077 16.6912 73.5745 17.206C73.9209 17.6921 74.3799 17.9456 74.9402 18.0508C75.5338 18.1623 76.2323 18.1002 76.9163 17.9132C77.6048 17.725 78.1579 17.4436 78.4429 17.2366C79.9187 16.1648 81.753 14.8139 84.883 14.7285C84.7952 14.4949 84.7087 14.2548 84.6252 14.0097C84.1378 12.579 83.7081 10.8682 83.7081 9.27946Z" fill="#59514A"/>
<path d="M117.628 9.27946C117.628 7.2979 117.002 5.15626 115.624 3.48109C114.214 1.76607 112.074 0.617188 109.268 0.617188C104.513 0.617206 101.985 4.41886 101.985 7.87699H104.965C104.965 5.7253 106.475 3.58713 109.268 3.58711C111.18 3.58711 112.474 4.33569 113.32 5.36371C114.198 6.43159 114.648 7.8786 114.648 9.27946C114.648 10.3966 114.333 11.7522 113.889 13.0549C113.625 13.8295 113.33 14.5455 113.063 15.1271C111.085 15.6859 109.726 16.7283 108.409 17.6217C107.47 18.2592 106.542 18.836 105.343 19.2673C104.148 19.6971 102.62 20.0042 100.494 20.0042V22.9741C102.921 22.9741 104.797 22.6212 106.355 22.061C107.908 21.5023 109.08 20.7591 110.086 20.0767C112.072 18.7294 113.348 17.6942 116.138 17.6942C118.384 17.6942 119.617 18.5337 121.023 19.5532C121.731 20.3412 121.854 21.3063 121.581 22.0289C121.324 22.711 120.632 23.3866 119.2 23.3866V26.3565C121.766 26.3565 123.64 25.0109 124.371 23.0737C124.621 22.4099 124.726 21.7036 124.688 20.9975C125.405 21.1001 126.178 21.1137 126.947 20.9693C128.145 20.7443 129.332 20.1312 130.191 18.9257C131.029 17.749 131.451 16.155 131.451 14.1468H128.471C128.471 15.7685 128.128 16.6912 127.761 17.206C127.415 17.6921 126.956 17.9456 126.395 18.0508C125.802 18.1623 125.103 18.1002 124.419 17.9132C123.731 17.725 123.178 17.4436 122.893 17.2366C121.417 16.1648 119.583 14.8139 116.453 14.7285C116.541 14.4949 116.627 14.2548 116.711 14.0097C117.198 12.579 117.628 10.8682 117.628 9.27946Z" fill="#59514A"/>
<path d="M58.4052 22.5679C58.4052 16.5628 60.5699 12.0773 63.8559 9.10451C67.1133 6.15757 71.3683 4.79004 75.4266 4.79004C81.8177 4.79004 85.4533 7.56592 86.5793 9.38326L84.0354 10.9463C83.5561 10.1727 80.9919 7.7668 75.4266 7.7668C72.0121 7.7668 68.5037 8.92128 65.8658 11.3077C63.2566 13.6682 61.3943 17.3275 61.3943 22.5679C61.3943 26.9254 62.4779 29.7203 63.9373 31.4044C65.3786 33.0677 67.3281 33.8135 69.4483 33.8135C72.7896 33.8135 74.4666 31.8361 74.831 31.0932L77.5168 32.3994C76.7187 34.0269 74.078 36.7903 69.4483 36.7903C66.5867 36.7903 63.7619 35.7583 61.6744 33.3492C59.6049 30.9609 58.4052 27.3888 58.4052 22.5679Z" fill="#59514A"/>
<path d="M142.926 22.5679C142.926 16.5628 140.761 12.0773 137.475 9.10451C134.217 6.15757 129.962 4.79004 125.904 4.79004C119.513 4.79004 115.877 7.56592 114.751 9.38326L117.295 10.9463C117.775 10.1727 120.339 7.7668 125.904 7.7668C129.319 7.7668 132.827 8.92128 135.465 11.3077C138.074 13.6682 139.936 17.3275 139.936 22.5679C139.936 26.9254 138.853 29.7203 137.393 31.4044C135.952 33.0677 134.003 33.8135 131.882 33.8135C128.541 33.8135 126.864 31.8361 126.5 31.0932L123.814 32.3994C124.612 34.0269 127.253 36.7903 131.882 36.7903C134.744 36.7903 137.569 35.7583 139.656 33.3492C141.726 30.9609 142.926 27.3888 142.926 22.5679Z" fill="#59514A"/>
<path d="M50.8831 11.0527C54.9731 11.0527 57.653 12.975 59.2777 15.3444C60.8537 17.6428 61.4293 20.3315 61.5366 22.0762L58.5683 22.255C58.4829 20.8674 58.0093 18.735 56.8166 16.9955C55.6726 15.327 53.8642 13.9944 50.8831 13.9944C47.5137 13.9944 44.5786 15.2561 41.805 17.2712C39.0042 19.306 36.4539 22.0433 33.8436 24.9072C31.2771 27.7232 28.6354 30.6826 25.7677 32.9149C22.8748 35.1668 19.6145 36.792 15.7726 36.792C13.8994 36.792 12.4266 36.4201 11.2517 35.737C10.0752 35.0529 9.32014 34.1277 8.77174 33.2313C8.28462 32.4351 7.82302 31.3878 7.53426 30.8392C7.17918 30.1646 6.89734 29.8087 6.58686 29.6092C6.38062 29.4767 6.07169 29.3562 5.52944 29.3562C4.53731 29.3562 4.13213 29.7523 3.91845 30.0623C3.79053 30.2479 3.71008 30.4421 3.66289 30.5936C3.63997 30.6672 3.62696 30.7244 3.62045 30.7564C3.61725 30.7721 3.61577 30.7811 3.61561 30.7821C3.61556 30.7824 3.61574 30.7808 3.61626 30.7771C3.61652 30.7752 3.61699 30.7728 3.61739 30.7698C3.61758 30.7683 3.61781 30.7666 3.61803 30.7648L3.61852 30.7605C3.61856 30.7601 3.6186 30.7596 3.4341 30.7372L0.851039 30.4266C0.668248 30.4044 0.666592 30.4037 0.666626 30.4033C0.666662 30.4031 0.666717 30.4022 0.666788 30.4016C0.666928 30.4005 0.667118 30.3993 0.667272 30.3981C0.667581 30.3956 0.668035 30.393 0.668401 30.3903C0.66914 30.3846 0.669997 30.3783 0.670983 30.3713C0.67295 30.3573 0.675317 30.3406 0.678404 30.3213C0.684581 30.2828 0.693232 30.2337 0.705025 30.1758C0.72853 30.0603 0.765227 29.9068 0.821029 29.7276C0.931306 29.3735 1.1245 28.8936 1.46123 28.4051C2.17687 27.3668 3.46513 26.4146 5.52944 26.4146C5.94302 26.4146 6.33306 26.4536 6.70029 26.5311C7.32615 25.6791 8.22309 25.0172 9.27238 24.716C10.9416 24.237 12.7768 24.7275 14.2344 26.3295L12.024 28.2973C11.2513 27.4481 10.567 27.4074 10.101 27.5412C9.79198 27.6299 9.49595 27.8195 9.2577 28.076C9.64609 28.536 9.9356 29.0319 10.1719 29.4807C10.6504 30.3898 10.8675 30.9753 11.3159 31.7083C11.7031 32.3412 12.1407 32.8417 12.7586 33.201C13.3782 33.5613 14.3019 33.8504 15.7726 33.8504C18.7045 33.8504 21.3302 32.6259 23.9286 30.6033C26.5521 28.561 29.007 25.821 31.635 22.9375C34.2193 20.1021 36.9617 17.14 40.0446 14.9002C43.1546 12.6408 46.6941 11.0527 50.8831 11.0527Z" fill="#59514A"/>
<path d="M150.45 11.0527C146.36 11.0527 143.68 12.975 142.056 15.3444C140.48 17.6428 139.904 20.3315 139.797 22.0762L142.765 22.255C142.85 20.8674 143.324 18.735 144.517 16.9955C145.661 15.327 147.469 13.9944 150.45 13.9944C153.82 13.9944 156.755 15.2561 159.528 17.2712C162.329 19.306 164.879 22.0433 167.49 24.9072C170.056 27.7232 172.698 30.6826 175.566 32.9149C178.458 35.1668 181.719 36.792 185.561 36.792C187.434 36.792 188.907 36.4201 190.082 35.737C191.258 35.0529 192.013 34.1277 192.562 33.2313C193.049 32.4351 193.51 31.3878 193.799 30.8392C194.154 30.1646 194.436 29.8087 194.746 29.6092C194.953 29.4767 195.262 29.3562 195.804 29.3562C196.796 29.3562 197.201 29.7523 197.415 30.0623C197.543 30.2479 197.623 30.4421 197.67 30.5936C197.693 30.6672 197.706 30.7244 197.713 30.7564C197.716 30.7721 197.717 30.7811 197.718 30.7821C197.718 30.7824 197.718 30.7808 197.717 30.7771C197.717 30.7752 197.716 30.7728 197.716 30.7698C197.716 30.7683 197.715 30.7666 197.715 30.7648L197.715 30.7605C197.715 30.7601 197.715 30.7596 197.899 30.7372L200.482 30.4266C200.665 30.4044 200.667 30.4037 200.667 30.4033C200.667 30.4031 200.667 30.4022 200.666 30.4016C200.666 30.4005 200.666 30.3993 200.666 30.3981C200.666 30.3956 200.665 30.393 200.665 30.3903C200.664 30.3846 200.663 30.3783 200.662 30.3713C200.66 30.3573 200.658 30.3406 200.655 30.3213C200.649 30.2828 200.64 30.2337 200.628 30.1758C200.605 30.0603 200.568 29.9068 200.512 29.7276C200.402 29.3735 200.209 28.8936 199.872 28.4051C199.156 27.3668 197.868 26.4146 195.804 26.4146C195.39 26.4146 195 26.4536 194.633 26.5311C194.007 25.6791 193.11 25.0172 192.061 24.716C190.392 24.237 188.556 24.7275 187.099 26.3295L189.309 28.2973C190.082 27.4481 190.766 27.4074 191.232 27.5412C191.541 27.6299 191.837 27.8195 192.076 28.076C191.687 28.536 191.398 29.0319 191.161 29.4807C190.683 30.3898 190.466 30.9753 190.017 31.7083C189.63 32.3412 189.193 32.8417 188.575 33.201C187.955 33.5613 187.031 33.8504 185.561 33.8504C182.629 33.8504 180.003 32.6259 177.405 30.6033C174.781 28.561 172.326 25.821 169.698 22.9375C167.114 20.1021 164.372 17.14 161.289 14.9002C158.179 12.6408 154.639 11.0527 150.45 11.0527Z" fill="#59514A"/>
<path d="M56.907 21.8359C59.3705 21.8359 60.962 22.8768 61.5367 23.9049L58.9743 25.3552C59.059 25.5067 58.625 24.7944 56.907 24.7944C56.3504 24.7944 56.0003 24.9365 55.7365 25.1292C55.4863 25.3119 55.2412 25.5943 54.9922 26.0203C54.8684 26.9705 54.9237 28.1367 55.3288 29.0273C55.537 29.485 55.8238 29.8427 56.2088 30.0932C56.5923 30.3427 57.1669 30.5469 58.0504 30.5469V33.5054C56.698 33.5054 55.5471 33.1858 54.6123 32.5775C53.9361 32.1375 53.4221 31.5786 53.0384 30.9702C52.7117 31.7386 52.3174 32.5236 51.809 33.2556C51.1185 34.2498 50.2127 35.1539 48.9788 35.8005C47.7473 36.4458 46.2693 36.7926 44.4931 36.7926V33.8341C45.8826 33.8341 46.8789 33.5653 47.6208 33.1765C48.3603 32.789 48.9271 32.2405 49.3991 31.561C49.8803 30.8682 50.2561 30.0491 50.6055 29.134C50.7193 28.8357 50.8273 28.5348 50.9352 28.2289C50.5723 28.1336 50.2021 27.9952 49.8361 27.8037C48.5103 27.1099 47.3807 25.7956 46.8287 23.693L49.6712 22.9373C50.0339 24.319 50.6758 24.9085 51.1926 25.179C51.4657 25.3218 51.7436 25.3955 51.9927 25.4265C52.0835 25.2272 52.1794 25.0302 52.2816 24.8376C52.6888 24.0698 53.2293 23.3048 54.0095 22.7349C54.8151 22.1465 55.7809 21.8359 56.907 21.8359Z" fill="#59514A"/>
<path d="M144.52 21.8359C142.007 21.8359 140.383 22.8768 139.796 23.9049L142.411 25.3552C142.324 25.5067 142.767 24.7944 144.52 24.7944C145.088 24.7944 145.445 24.9365 145.715 25.1292C145.97 25.3119 146.22 25.5943 146.474 26.0203C146.601 26.9705 146.544 28.1367 146.131 29.0273C145.918 29.485 145.626 29.8427 145.233 30.0932C144.841 30.3427 144.255 30.5469 143.354 30.5469V33.5054C144.734 33.5054 145.908 33.1858 146.862 32.5775C147.552 32.1375 148.076 31.5786 148.468 30.9702C148.801 31.7386 149.204 32.5236 149.722 33.2556C150.427 34.2498 151.351 35.1539 152.61 35.8005C153.867 36.4458 155.375 36.7926 157.188 36.7926V33.8341C155.77 33.8341 154.753 33.5653 153.996 33.1765C153.241 32.789 152.663 32.2405 152.181 31.561C151.69 30.8682 151.307 30.0491 150.95 29.134C150.834 28.8357 150.724 28.5348 150.614 28.2289C150.984 28.1336 151.362 27.9952 151.735 27.8037C153.088 27.1099 154.241 25.7956 154.804 23.693L151.904 22.9373C151.534 24.319 150.879 24.9085 150.351 25.179C150.073 25.3218 149.789 25.3955 149.535 25.4265C149.442 25.2272 149.344 25.0302 149.24 24.8376C148.825 24.0698 148.273 23.3048 147.477 22.7349C146.655 22.1465 145.669 21.8359 144.52 21.8359Z" fill="#59514A"/>
<path d="M97.4692 11.7471C97.4692 13.1586 97.6066 13.9953 97.7696 14.5411C97.9255 15.0636 98.1227 15.3886 98.3946 15.812C98.6787 16.2543 99.0728 16.841 99.3586 17.7177C99.6414 18.5851 99.797 19.6562 99.797 21.1384H96.9073C96.9073 19.8609 96.7719 19.1299 96.6182 18.6587C96.4676 18.1967 96.2797 17.908 95.9819 17.4442C95.6719 16.9614 95.2871 16.3493 95.0066 15.4096C94.7331 14.4932 94.5795 13.3424 94.5795 11.7471H97.4692Z" fill="#59514A"/>
<path d="M104.019 11.7471C104.019 13.1586 103.872 13.9953 103.698 14.5411C103.532 15.0636 103.322 15.3886 103.032 15.812C102.729 16.2543 102.308 16.841 102.003 17.7177C101.702 18.5851 101.536 19.6562 101.536 21.1384H104.618C104.618 19.8609 104.763 19.1299 104.927 18.6587C105.087 18.1967 105.288 17.908 105.605 17.4442C105.936 16.9614 106.346 16.3493 106.646 15.4096C106.937 14.4932 107.101 13.3424 107.101 11.7471H104.019Z" fill="#59514A"/>
<path d="M100.841 21.8361V24.8441C98.4426 24.8442 96.0407 24.9146 94.4092 26.8317C94.296 26.9648 94.186 27.1076 94.078 27.2601C93.9691 28.0746 94.0144 29.1148 94.3764 29.9227C94.5674 30.3489 94.8337 30.6855 95.198 30.9235C95.5619 31.1611 96.1177 31.3618 96.985 31.3618V34.3699C95.6538 34.3699 94.5221 34.0553 93.6039 33.4556C92.8133 32.9393 92.251 32.2571 91.8634 31.527C91.5807 32.0651 91.2662 32.6086 90.9042 33.1252C90.2011 34.1284 89.2968 35.0679 88.0461 35.7461C86.7952 36.4245 85.2883 36.7926 83.4492 36.7926V33.7845C84.8924 33.7845 85.9061 33.4987 86.6582 33.0909C87.4104 32.683 87.9915 32.1037 88.5005 31.3775C89.0228 30.6321 89.443 29.7728 89.9013 28.8004C89.9665 28.6621 90.033 28.5209 90.1006 28.3774C89.9593 28.3373 89.8167 28.2897 89.6736 28.2333C88.1802 27.6442 86.8923 26.2425 86.007 23.8756L88.7668 22.8046C89.4565 24.6488 90.2596 25.2387 90.7401 25.4282C91.1067 25.5728 91.4495 25.5504 91.6987 25.4775C91.8479 25.2679 92.0071 25.0618 92.1776 24.8614C94.8119 21.7659 98.6447 21.8361 100.841 21.8361Z" fill="#59514A"/>
<path d="M100.494 21.8361V24.8441C102.892 24.8442 105.294 24.9146 106.926 26.8317C107.039 26.9648 107.149 27.1076 107.257 27.2601C107.366 28.0746 107.321 29.1148 106.959 29.9227C106.768 30.3489 106.501 30.6855 106.137 30.9235C105.773 31.1611 105.217 31.3618 104.35 31.3618V34.3699C105.681 34.3699 106.813 34.0553 107.731 33.4556C108.522 32.9393 109.084 32.2571 109.472 31.527C109.754 32.0651 110.069 32.6086 110.431 33.1252C111.134 34.1284 112.038 35.0679 113.289 35.7461C114.54 36.4245 116.047 36.7926 117.886 36.7926V33.7845C116.443 33.7845 115.429 33.4987 114.677 33.0909C113.925 32.683 113.343 32.1037 112.834 31.3775C112.312 30.6321 111.892 29.7728 111.434 28.8004C111.368 28.6621 111.302 28.5209 111.234 28.3774C111.376 28.3373 111.518 28.2897 111.661 28.2333C113.155 27.6442 114.443 26.2425 115.328 23.8756L112.568 22.8046C111.878 24.6488 111.075 25.2387 110.595 25.4282C110.228 25.5728 109.886 25.5504 109.636 25.4775C109.487 25.2679 109.328 25.0618 109.157 24.8614C106.523 21.7659 102.69 21.8361 100.494 21.8361Z" fill="#59514A"/>
</svg>
