<svg width="22" height="18" viewBox="0 0 22 18" fill="none" xmlns="http://www.w3.org/2000/svg">
<path d="M3.03956 10.2135V13.1125C3.03956 13.8656 3.45773 14.5671 4.1268 14.9282L9.35391 17.7447C9.98116 18.0851 10.7339 18.0851 11.3611 17.7447L16.5882 14.9282C17.2573 14.5671 17.6755 13.8656 17.6755 13.1125V10.2135L11.3611 13.618C10.7339 13.9584 9.98116 13.9584 9.35391 13.618L3.03956 10.2135ZM9.35391 0.2476L0.541005 4.99327C-0.180335 5.3853 -0.180335 6.41697 0.541005 6.809L9.35391 11.5547C9.98116 11.8951 10.7339 11.8951 11.3611 11.5547L19.7663 7.02565V13.1228C19.7663 13.6902 20.2367 14.1545 20.8117 14.1545C21.3867 14.1545 21.8571 13.6902 21.8571 13.1228V6.50982C21.8571 6.1281 21.6481 5.78765 21.3135 5.60195L11.3611 0.2476C11.0522 0.0850349 10.7076 0 10.3575 0C10.0075 0 9.66278 0.0850349 9.35391 0.2476Z" fill="#7BAAD0"/>
</svg>
