<svg width="20" height="20" viewBox="0 0 20 20" fill="none" xmlns="http://www.w3.org/2000/svg">
<mask id="mask0_592_387" style="mask-type:alpha" maskUnits="userSpaceOnUse" x="0" y="0" width="20" height="20">
<rect width="20" height="20" fill="#D9D9D9"/>
</mask>
<g mask="url(#mask0_592_387)">
<path d="M13.1441 10.8108L12.2082 9.87497C12.3332 9.18483 12.1364 8.56435 11.6176 8.01351C11.099 7.46282 10.4625 7.24997 9.70823 7.37497L8.7724 6.43914C8.96045 6.35469 9.1533 6.29136 9.35094 6.24914C9.54858 6.20692 9.7649 6.18581 9.9999 6.18581C10.9455 6.18581 11.7481 6.51567 12.4078 7.17539C13.0675 7.83511 13.3974 8.63775 13.3974 9.5833C13.3974 9.81831 13.3763 10.0373 13.3341 10.2404C13.2918 10.4433 13.2285 10.6334 13.1441 10.8108ZM15.7947 13.4037L14.8749 12.5416C15.4027 12.1389 15.8714 11.6979 16.2812 11.2187C16.6909 10.7396 17.0416 10.1944 17.3332 9.5833C16.6388 8.18053 15.6423 7.06594 14.3436 6.23956C13.045 5.41317 11.5971 4.99997 9.9999 4.99997C9.59712 4.99997 9.20129 5.02775 8.8124 5.08331C8.42351 5.13886 8.04157 5.22219 7.66657 5.33331L6.69552 4.36226C7.22219 4.15282 7.76011 3.99844 8.30927 3.89914C8.85844 3.79969 9.42198 3.74997 9.9999 3.74997C11.9528 3.74997 13.714 4.28844 15.2834 5.36539C16.8529 6.44233 17.9977 7.84831 18.7178 9.5833C18.4091 10.3279 18.0103 11.0229 17.5216 11.6683C17.0327 12.3136 16.4571 12.8921 15.7947 13.4037ZM16.4678 18.2243L13.0962 14.8781C12.6688 15.0363 12.1952 15.1656 11.6753 15.266C11.1556 15.3664 10.5971 15.4166 9.9999 15.4166C8.04157 15.4166 6.28039 14.8782 4.71636 13.8012C3.15219 12.7243 2.0074 11.3183 1.28198 9.5833C1.58962 8.84719 1.98705 8.16053 2.47427 7.52331C2.9615 6.88594 3.49782 6.3333 4.08323 5.86539L1.77552 3.53205L2.65386 2.65393L17.3459 17.346L16.4678 18.2243ZM4.96157 6.74351C4.52129 7.09393 4.09309 7.51518 3.67698 8.00726C3.26087 8.49921 2.92407 9.02456 2.66657 9.5833C3.36101 10.9861 4.35754 12.1007 5.65615 12.9271C6.95476 13.7534 8.40268 14.1666 9.9999 14.1666C10.3792 14.1666 10.7569 14.1346 11.133 14.0704C11.509 14.0064 11.8279 13.9402 12.0897 13.8718L11.0351 12.7916C10.893 12.8493 10.7285 12.8952 10.5416 12.9293C10.3546 12.9637 10.1741 12.9808 9.9999 12.9808C9.05434 12.9808 8.25171 12.6509 7.59198 11.9912C6.93226 11.3315 6.6024 10.5289 6.6024 9.5833C6.6024 9.41456 6.61955 9.23803 6.65386 9.05372C6.68802 8.86942 6.73393 8.70087 6.79157 8.5481L4.96157 6.74351Z" fill="#796F64"/>
</g>
</svg>
