<svg width="29" height="28" viewBox="0 0 29 28" fill="none" xmlns="http://www.w3.org/2000/svg">
<path fill-rule="evenodd" clip-rule="evenodd" d="M13.1317 0.760753C14.7767 0.280402 16.9788 0 19.3615 0C21.7437 0 23.9458 0.280407 25.5909 0.760744C26.4054 0.998553 27.1522 1.30493 27.7229 1.69894C28.2542 2.06576 28.9032 2.70442 28.9032 3.65217V15.8261C28.9032 16.789 28.1893 17.4129 27.6908 17.7441C27.1212 18.1226 26.3734 18.4297 25.55 18.674C24.1702 19.0835 22.403 19.3673 20.4731 19.4519V24.2711C20.4731 25.2181 19.8355 25.8666 19.2948 26.2474C18.719 26.6529 17.9644 26.969 17.1402 27.2146C15.4761 27.7104 13.2485 28 10.8387 28C8.429 28 6.20146 27.7107 4.53734 27.2151C3.71315 26.9696 2.95841 26.6535 2.38254 26.2478C1.84152 25.8667 1.2043 25.2181 1.2043 24.2711V18.2609C1.2043 17.3069 1.86384 16.6682 2.39692 16.3042C2.55066 16.1992 2.71711 16.1004 2.89421 16.0075C2.30877 15.8163 1.78507 15.5961 1.35691 15.3449C1.0465 15.1628 0.734085 14.9343 0.486931 14.6437C0.236278 14.3491 0 13.9244 0 13.3913V7.30435C0 6.27201 0.798625 5.63705 1.34867 5.3084C1.97922 4.93163 2.81147 4.63461 3.73424 4.40144C5.3638 3.9897 7.48799 3.72524 9.81987 3.66522V3.65217C9.81987 2.70458 10.4686 2.06592 10.9999 1.69901C11.5705 1.30497 12.3173 0.998569 13.1317 0.760753ZM12.2285 6.23765V9.65021C12.5351 9.8384 13.0272 10.0506 13.7077 10.2495C15.1349 10.6667 17.1503 10.9565 19.3615 10.9565C21.5722 10.9565 23.5373 10.6667 24.9128 10.2523C25.6083 10.0428 26.0913 9.81967 26.3728 9.62878C26.4259 9.59281 26.4655 9.56263 26.4946 9.53851V6.23765C26.2075 6.3505 25.9042 6.45213 25.5909 6.5436C23.9458 7.02394 21.7437 7.30435 19.3615 7.30435C16.9794 7.30435 14.7773 7.02394 13.1322 6.5436C12.8189 6.45213 12.5156 6.3505 12.2285 6.23765ZM26.5395 3.4499C26.5439 3.44243 26.547 3.43877 26.5475 3.43881C26.5479 3.43885 26.5456 3.44258 26.5395 3.4499ZM26.2766 3.65217C25.9943 3.82689 25.5476 4.02195 24.9226 4.20444C23.55 4.60519 21.5835 4.86957 19.3615 4.86957C17.1396 4.86957 15.1731 4.60519 13.8005 4.20444C13.1754 4.02192 12.7287 3.82684 12.4464 3.65211C12.7286 3.47743 13.1752 3.28239 13.8001 3.0999C15.1725 2.69916 17.139 2.43478 19.3615 2.43478C21.5835 2.43478 23.55 2.69916 24.9226 3.09991C25.5476 3.2824 25.9943 3.47746 26.2766 3.65217ZM12.1756 3.43881C12.1761 3.43877 12.1791 3.44243 12.1836 3.44991C12.1775 3.44259 12.1752 3.43885 12.1756 3.43881ZM26.4946 12.2764C26.2114 12.3891 25.9115 12.492 25.6007 12.5857C23.9585 13.0804 21.7549 13.3913 19.3615 13.3913C16.9675 13.3913 14.7215 13.0804 13.0386 12.5885C12.7587 12.5066 12.4873 12.4178 12.2285 12.3216V14.6403C14.095 14.726 15.795 14.9828 17.1305 15.3685C17.9526 15.6059 18.7055 15.9115 19.2805 16.3042C19.5388 16.4805 19.8267 16.7213 20.0549 17.0312C21.9494 16.9721 23.6386 16.7037 24.8716 16.3378C25.5802 16.1276 26.0764 15.9031 26.3678 15.7095C26.423 15.6729 26.4642 15.6421 26.4946 15.6174V12.2764ZM26.5699 15.5449C26.5705 15.545 26.5674 15.5497 26.5588 15.559C26.5651 15.5495 26.5694 15.5449 26.5699 15.5449ZM18.1192 18.0423C18.1196 18.0424 18.1173 18.0462 18.1109 18.0537C18.1155 18.046 18.1187 18.0423 18.1192 18.0423ZM9.81987 14.5934V10.9435C7.48799 10.8835 5.3638 10.619 3.73424 10.2073C3.26394 10.0884 2.81716 9.953 2.4086 9.79888V13.137C2.44691 13.165 2.49837 13.1994 2.56602 13.2391C2.91882 13.4461 3.50567 13.6782 4.32703 13.8923C5.73522 14.2595 7.65334 14.5282 9.81987 14.5934ZM2.75715 7.30435C3.10971 7.48229 3.62855 7.67085 4.31832 7.84514C5.72524 8.20063 7.64535 8.44824 9.81987 8.50786V6.10084C7.64535 6.16046 5.72524 6.40806 4.31832 6.76356C3.62855 6.93784 3.10971 7.1264 2.75715 7.30435ZM2.33031 7.02281C2.33095 7.02273 2.33559 7.0275 2.34233 7.03734C2.33304 7.02781 2.32967 7.02289 2.33031 7.02281ZM26.5555 9.48207C26.5613 9.47296 26.5654 9.46851 26.5659 9.46856C26.5664 9.46861 26.5635 9.47317 26.5555 9.48207ZM10.8387 17.0435C8.58996 17.0435 6.59901 17.308 5.20852 17.7096C4.57904 17.8914 4.12713 18.0859 3.83974 18.2609C4.12713 18.4359 4.57904 18.6304 5.20852 18.8122C6.59901 19.2137 8.58996 19.4783 10.8387 19.4783C13.0875 19.4783 15.0784 19.2137 16.4689 18.8122C17.0984 18.6304 17.5503 18.4359 17.8377 18.2609C17.5503 18.0859 17.0984 17.8914 16.4689 17.7096C15.0784 17.308 13.0875 17.0435 10.8387 17.0435ZM18.0645 20.8393C17.7684 20.9553 17.4548 21.0596 17.1305 21.1533C15.4699 21.6328 13.2458 21.913 10.8387 21.913C8.43163 21.913 6.20753 21.6328 4.54692 21.1533C4.22258 21.0596 3.90902 20.9553 3.6129 20.8393V24.1328C3.64204 24.1607 3.6884 24.2001 3.75962 24.2502C4.03692 24.4456 4.51674 24.6706 5.2181 24.8796C6.60508 25.2927 8.59259 25.5652 10.8387 25.5652C13.0847 25.5652 15.0722 25.2924 16.4592 24.8791C17.1606 24.6701 17.6405 24.445 17.9179 24.2497C17.989 24.1996 18.0354 24.1603 18.0645 24.1324V20.8393ZM18.1084 24.0827C18.1088 24.0828 18.1069 24.0862 18.1016 24.0928C18.1054 24.086 18.1081 24.0827 18.1084 24.0827ZM3.56915 24.0833C3.56951 24.0833 3.57215 24.0866 3.57596 24.0934C3.57069 24.0868 3.56878 24.0834 3.56915 24.0833ZM3.55824 18.0423C3.55868 18.0423 3.56188 18.046 3.56653 18.0537C3.56013 18.0462 3.5578 18.0424 3.55824 18.0423Z" fill="white"/>
</svg>
