<svg width="18" height="18" viewBox="0 0 18 18" fill="none" xmlns="http://www.w3.org/2000/svg">
<path d="M9 0C9.29837 0 9.58492 0.118123 9.7959 0.329102C10.0069 0.54008 10.125 0.826631 10.125 1.125V7.875H16.875C17.1734 7.875 17.4599 7.99312 17.6709 8.2041C17.8819 8.41508 18 8.70163 18 9C18 9.29837 17.8819 9.58492 17.6709 9.7959C17.4599 10.0069 17.1734 10.125 16.875 10.125H10.125V16.875C10.125 17.1734 10.0069 17.4599 9.7959 17.6709C9.58492 17.8819 9.29837 18 9 18C8.70163 18 8.41508 17.8819 8.2041 17.6709C7.99312 17.4599 7.875 17.1734 7.875 16.875V10.125H1.125C0.826631 10.125 0.54008 10.0069 0.329102 9.7959C0.118123 9.58492 0 9.29837 0 9C0 8.70163 0.118123 8.41508 0.329102 8.2041C0.54008 7.99312 0.826631 7.875 1.125 7.875H7.875V1.125C7.875 0.826631 7.99312 0.54008 8.2041 0.329102C8.41508 0.118123 8.70163 0 9 0Z" fill="#222A3F"/>
</svg>
