<svg width="184" height="44" viewBox="0 0 184 44" fill="none" xmlns="http://www.w3.org/2000/svg">
<path d="M0 10.8235C0 10.6901 0.00596936 10.5576 0.0179081 10.4242C0.0477549 10.0946 0.0736221 9.76505 0.112423 9.43746C0.335279 7.55953 0.973005 5.83195 2.08828 4.30451C3.95171 1.75048 6.42999 0.255901 9.62459 0.0388332C9.68926 0.0348503 9.75293 0.0129444 9.8176 0C20.9425 0 32.0674 0 43.1923 0C43.2211 0.0139401 43.248 0.0348503 43.2788 0.0418204C43.824 0.170269 44.1673 0.549639 44.2598 1.12815C44.3404 1.63099 44.1016 2.17466 43.6649 2.42956C43.5256 2.51121 43.3604 2.55702 43.2012 2.59087C43.0659 2.61975 42.9207 2.61178 42.7804 2.61178C32.0127 2.61178 21.2449 2.61178 10.4772 2.61178C6.87968 2.50723 3.77164 4.93679 2.72402 8.2874C1.753 11.396 2.61756 14.9448 5.12469 17.1663C6.32254 18.2277 7.71738 18.855 9.30822 19.0293C9.55992 19.0571 9.81263 19.0651 10.0653 19.0651C19.9635 19.0671 29.8627 19.0651 39.7609 19.0691C40.3737 19.0691 40.9886 19.079 41.5975 19.1398C43.3445 19.314 44.9214 19.9533 46.3222 21.0048C48.502 22.6397 49.864 24.8164 50.4261 27.469C51.0559 30.4402 50.6072 33.2611 49.0054 35.855C47.5917 38.1441 45.588 39.6885 42.9734 40.4044C42.1874 40.6195 41.3736 40.7221 40.5588 40.7221C28.0072 40.7241 15.4557 40.7221 2.90509 40.7251C2.40764 40.7251 2.02461 40.5438 1.78285 40.1426C1.49532 39.6666 1.52318 39.0503 1.85249 38.6032C2.07336 38.3035 2.37779 38.1392 2.75386 38.1322C2.84539 38.1302 2.93593 38.1322 3.02746 38.1322C15.4447 38.1322 27.862 38.1193 40.2792 38.1402C44.2857 38.1471 47.4226 35.2864 48.1667 31.7596C48.7458 29.0154 48.1618 26.5211 46.356 24.3594C45.1651 22.9345 43.635 22.0632 41.8014 21.7615C41.4323 21.7008 41.0572 21.6769 40.6832 21.6769C30.7591 21.6729 20.835 21.6739 10.912 21.6729C10.1658 21.6729 9.42163 21.6639 8.68143 21.5454C6.82497 21.2467 5.18936 20.4721 3.7786 19.2384C1.85548 17.5576 0.686476 15.4377 0.223851 12.9334C0.126351 12.4077 0.0855608 11.871 0.0288519 11.3373C0.0129336 11.185 0.00298468 11.0326 0.00298468 10.8793V10.8245L0 10.8235Z" fill="#222A3F"/>
<path d="M19.4541 4.91985V10.7518C19.68 10.6831 19.8252 10.5337 19.9954 10.4292C20.1715 10.3206 20.3396 10.1992 20.5117 10.0837C20.6898 9.96318 20.8689 9.8427 21.047 9.72222C21.2191 9.60671 21.3902 9.49021 21.5623 9.37471C21.7334 9.25921 21.9056 9.14569 22.0936 9.02023C22.9532 9.60074 23.8098 10.1773 24.7112 10.7856C24.7241 10.3515 24.7171 9.96617 24.7181 9.58083C24.7191 9.1915 24.7181 8.80217 24.7181 8.41284V4.92383H42.6859C42.7386 5.117 42.7446 16.516 42.6889 16.7689C42.6043 16.7689 42.5148 16.7689 42.4252 16.7689C31.6913 16.7689 20.9584 16.7729 10.2245 16.765C8.37502 16.764 6.92248 15.9325 5.846 14.4599C3.98157 11.9078 4.39545 8.24954 6.7623 6.21827C7.76813 5.35498 8.93713 4.9079 10.2693 4.9079C13.2361 4.9079 16.2038 4.9079 19.1706 4.9079C19.2591 4.9079 19.3477 4.91487 19.4541 4.91985Z" fill="#222A3F"/>
<path d="M3.13691 26.9044V23.9661C3.26724 23.9661 3.38264 23.9661 3.49706 23.9661C15.773 23.9661 28.049 23.9661 40.325 23.9661C42.5456 23.9661 44.1802 24.9966 45.2577 26.8945C46.5491 29.1707 46.2088 32.0912 44.4797 34.0059C43.5863 34.9947 42.479 35.5991 41.1557 35.7873C40.8861 35.8261 40.6105 35.8371 40.3379 35.8371C28.0371 35.8391 15.7362 35.8391 3.43537 35.8391C3.34484 35.8391 3.2553 35.8391 3.17173 35.8391C3.11004 35.6419 3.10009 30.3009 3.15979 30.034C16.6257 30.2839 30.0955 30.5329 43.5902 30.7828C43.7335 30.275 43.7265 29.7721 43.647 29.2474C30.1373 29.4973 16.6436 29.7462 3.1379 29.9962V26.9433C16.4227 27.1882 29.6906 27.4332 42.9983 27.6791C42.9485 27.5995 42.9277 27.5566 42.8988 27.5208C42.2611 26.7401 41.4572 26.2881 40.4315 26.2911C38.4009 26.298 36.3703 26.2971 34.3397 26.3239C31.6635 26.3598 28.9862 26.4205 26.31 26.4703C24.5371 26.5032 22.7642 26.537 20.9903 26.5699C19.2174 26.6027 17.4445 26.6366 15.6706 26.6695C13.0023 26.7192 10.335 26.768 7.66665 26.8188C6.24993 26.8457 4.8332 26.8746 3.41647 26.9025C3.32793 26.9044 3.23839 26.9025 3.13691 26.9025V26.9044ZM3.52591 32.8449C3.52591 32.8628 3.52591 32.8798 3.52591 32.8977C3.57466 32.8997 3.62341 32.9037 3.67216 32.9047C4.58348 32.9216 5.4948 32.9375 6.40612 32.9545C9.09035 33.0042 11.7746 33.054 14.4588 33.1038C16.2148 33.1367 17.9718 33.1705 19.7277 33.2024C22.412 33.2522 25.0962 33.303 27.7804 33.3517C29.3712 33.3806 30.9621 33.3956 32.5519 33.4354C35.1784 33.5011 37.8049 33.53 40.4315 33.5111C41.4303 33.5041 42.2332 33.0729 42.867 32.3112C42.9068 32.2634 42.9346 32.2067 42.9923 32.1161C29.809 32.359 16.6684 32.602 3.5269 32.8449H3.52591Z" fill="#222A3F"/>
<path d="M77.5668 6.66733H74.2996C74.2827 6.62551 74.2628 6.58966 74.2528 6.55083C73.8867 5.18868 73.0003 4.33933 71.6611 3.95897C70.3787 3.59553 69.0714 3.54076 67.7771 3.85242C65.9007 4.30448 64.7078 5.51528 64.1447 7.34343C63.8383 8.33915 63.8094 9.36773 63.9169 10.3963C63.9617 10.8225 64.0373 11.2516 64.1547 11.6629C64.6153 13.2809 65.6739 14.3224 67.2756 14.8203C68.2676 15.129 69.2883 15.2166 70.32 15.1967C71.4204 15.1758 72.4988 15.0195 73.5305 14.6182C73.8071 14.5106 74.0777 14.3882 74.3473 14.2747V11.2606C74.0777 11.2457 73.8161 11.2546 73.5544 11.2536C73.2888 11.2516 73.0241 11.2536 72.7585 11.2536H69.5848C69.5231 11.0625 69.5072 9.13075 69.5629 8.80216H77.5986C77.6046 8.8619 77.6175 8.92463 77.6175 8.98836C77.6185 11.1431 77.6166 13.2978 77.6225 15.4516C77.6225 15.6099 77.5549 15.6866 77.4345 15.7643C76.2307 16.5419 74.9174 17.0507 73.5206 17.3514C71.9715 17.685 70.4016 17.7776 68.8237 17.691C67.4388 17.6153 66.0947 17.3365 64.8511 16.6972C62.5807 15.5293 61.1889 13.6912 60.7481 11.168C60.4477 9.45336 60.5442 7.75665 61.2128 6.13661C62.2037 3.73792 63.9905 2.20749 66.4797 1.49555C67.6298 1.16696 68.8098 1.09925 70.0007 1.13609C71.1577 1.17194 72.2959 1.31632 73.3952 1.69071C74.4319 2.04419 75.3532 2.58188 76.0924 3.40335C76.8505 4.24573 77.2803 5.24743 77.5101 6.34472C77.53 6.4413 77.5449 6.53888 77.5678 6.66534L77.5668 6.66733Z" fill="#222A3F"/>
<path d="M146.861 34.1871H150.076C150.093 34.2519 150.11 34.3146 150.126 34.3763C150.194 34.6322 150.246 34.8931 150.33 35.143C150.686 36.1945 151.395 36.8736 152.479 37.1534C153.125 37.3207 153.781 37.3954 154.445 37.4073C155.335 37.4232 156.221 37.3954 157.081 37.1434C157.42 37.0439 157.747 36.8965 158.066 36.7422C158.234 36.6615 158.385 36.5331 158.522 36.4036C159.035 35.9207 159.117 35.2416 158.75 34.6382C158.56 34.3265 158.29 34.0965 157.987 33.9034C157.65 33.6893 157.29 33.521 156.905 33.4125C155.735 33.0799 154.56 32.7623 153.393 32.4207C152.296 32.1001 151.205 31.7665 150.116 31.421C149.501 31.2249 148.962 30.8813 148.493 30.4362C147.83 29.8079 147.483 29.0343 147.441 28.1222C147.377 26.7332 147.935 25.6458 149.053 24.8403C149.962 24.1861 150.981 23.7868 152.076 23.5737C153.264 23.3427 154.463 23.3228 155.666 23.4064C156.57 23.4692 157.458 23.6195 158.315 23.9212C159.123 24.206 159.852 24.6212 160.451 25.2426C161.19 26.0093 161.588 26.9403 161.765 27.9768C161.792 28.1401 161.807 28.3054 161.825 28.4697C161.828 28.5006 161.818 28.5324 161.812 28.5752H158.634C158.615 28.5225 158.593 28.4627 158.572 28.402C158.518 28.2457 158.471 28.0863 158.41 27.933C158.009 26.9273 157.281 26.301 156.225 26.0551C155.361 25.8539 154.485 25.8191 153.606 25.8828C153.179 25.9137 152.748 25.9714 152.331 26.068C152.03 26.1387 151.731 26.2642 151.459 26.4165C150.879 26.7431 150.653 27.2689 150.713 27.923C150.746 28.2815 150.928 28.5613 151.189 28.7963C151.463 29.0442 151.782 29.2245 152.131 29.336C152.943 29.5949 153.756 29.8528 154.575 30.0848C155.969 30.4791 157.371 30.8455 158.738 31.3264C159.389 31.5554 160.02 31.8233 160.582 32.2325C161.105 32.6129 161.546 33.064 161.852 33.6405C162.494 34.8473 162.38 36.777 161.145 38.0127C160.49 38.6679 159.702 39.0881 158.838 39.3818C158.034 39.6546 157.204 39.802 156.36 39.8817C155.484 39.9643 154.606 39.9753 153.728 39.9245C152.565 39.8578 151.421 39.6875 150.332 39.2484C148.373 38.4568 147.24 37.013 146.939 34.921C146.905 34.685 146.888 34.447 146.86 34.1822L146.861 34.1871Z" fill="#222A3F"/>
<path d="M61.2108 34.1921H64.4313C64.4621 34.3305 64.482 34.4689 64.5248 34.6014C64.6322 34.9309 64.7247 35.2695 64.868 35.5831C65.1983 36.3031 65.7525 36.789 66.5036 37.0508C67.0558 37.244 67.6259 37.3446 68.2049 37.3814C69.149 37.4412 70.0962 37.4451 71.0264 37.241C71.4045 37.1584 71.7805 37.0429 72.1347 36.8875C72.4023 36.77 72.657 36.5948 72.8749 36.3967C73.3813 35.9366 73.4639 35.2705 73.1226 34.676C72.9625 34.3972 72.7356 34.1812 72.476 33.998C72.1068 33.7381 71.7049 33.5429 71.2721 33.4194C70.0942 33.0829 68.9113 32.7643 67.7363 32.4207C66.6399 32.1001 65.5465 31.7715 64.4601 31.419C63.7299 31.1821 63.1061 30.7619 62.5987 30.1813C62.0823 29.5919 61.8256 28.8969 61.7918 28.1172C61.7311 26.7172 62.2992 25.6279 63.4294 24.8234C64.3347 24.1791 65.3466 23.7848 66.434 23.5737C67.6219 23.3437 68.8207 23.3248 70.0235 23.4074C70.9279 23.4702 71.8153 23.6205 72.6729 23.9242C73.4798 24.21 74.2091 24.6252 74.807 25.2485C75.5442 26.0162 75.9422 26.9472 76.1153 27.9848C76.1461 28.171 76.163 28.3602 76.1859 28.5454C75.9879 28.5991 73.4848 28.6181 72.9804 28.5733C72.9625 28.5185 72.9416 28.4578 72.9207 28.396C72.8699 28.2477 72.8242 28.0963 72.7675 27.9499C72.3755 26.9532 71.6631 26.307 70.6165 26.068C69.3221 25.7723 68.0188 25.7723 66.7225 26.0581C66.4121 26.1268 66.1057 26.2562 65.8251 26.4086C65.2411 26.7262 64.9794 27.2957 65.066 27.9549C65.1098 28.2925 65.2799 28.5603 65.5256 28.7843C65.8052 29.0402 66.1305 29.2235 66.4877 29.338C67.2359 29.5789 67.987 29.8109 68.7401 30.035C70.0962 30.4382 71.4582 30.8226 72.8122 31.2348C73.4619 31.433 74.0946 31.6809 74.6697 32.0553C75.0607 32.3102 75.4228 32.597 75.7293 32.9505C76.3312 33.6465 76.6058 34.456 76.5829 35.374C76.5441 36.9065 75.7899 38.0028 74.5135 38.7784C73.7624 39.2355 72.9366 39.5023 72.08 39.6786C70.6812 39.9673 69.2674 40.0012 67.8487 39.9096C66.9463 39.8518 66.0549 39.7084 65.1904 39.4306C64.3934 39.1747 63.6582 38.8073 63.0225 38.2547C62.0326 37.3944 61.5013 36.2901 61.3013 35.0116C61.2595 34.7447 61.2416 34.4739 61.2118 34.1871L61.2108 34.1921Z" fill="#222A3F"/>
<path d="M174.378 30.5468C177.486 33.5738 180.576 36.5838 183.7 39.6258C183.596 39.6367 183.535 39.6487 183.473 39.6487C182.147 39.6497 180.821 39.6487 179.495 39.6517C179.352 39.6517 179.247 39.6138 179.144 39.5103C177.837 38.181 176.526 36.8547 175.215 35.5284C174.259 34.5615 173.302 33.5967 172.347 32.6288C172.284 32.5641 172.235 32.4854 172.182 32.4157C172.112 32.4606 172.084 32.4755 172.06 32.4954C171.438 33.0172 170.819 33.5439 170.191 34.0597C170.074 34.1553 170.07 34.2628 170.07 34.3883C170.07 36.0292 170.07 37.6702 170.07 39.3111V39.5999C169.88 39.6576 167.178 39.6766 166.819 39.6248V23.6872H170.066V30.8953C170.176 30.8077 170.246 30.7569 170.312 30.7001C172.888 28.4468 175.467 26.1955 178.038 23.9352C178.249 23.75 178.454 23.6584 178.742 23.6633C179.911 23.6803 181.08 23.6703 182.248 23.6703H182.489C182.496 23.6852 182.503 23.7002 182.51 23.7151C179.805 25.9874 177.1 28.2586 174.377 30.5458L174.378 30.5468Z" fill="#222A3F"/>
<path d="M116.937 29.2832V23.4144C117.13 23.3607 119.786 23.3467 120.113 23.3945V39.6069C119.929 39.6616 117.447 39.6726 117.148 39.6158V38.6878C117.088 38.7167 117.056 38.7247 117.035 38.7436C116.314 39.3719 115.463 39.7214 114.529 39.8638C113.369 40.041 112.211 40.0052 111.086 39.6547C108.987 39.0025 107.71 37.5637 107.219 35.4438C106.91 34.1135 106.935 32.7703 107.409 31.4768C108.124 29.5242 109.509 28.3005 111.55 27.8564C112.457 27.6592 113.375 27.6214 114.288 27.8145C115.221 28.0107 116.015 28.4697 116.707 29.1179C116.761 29.1687 116.816 29.2185 116.871 29.2683C116.876 29.2733 116.887 29.2723 116.937 29.2842V29.2832ZM110.292 33.7849C110.309 34.3425 110.342 34.8882 110.488 35.4199C110.806 36.5789 111.536 37.3078 112.726 37.5587C113.152 37.6483 113.581 37.6732 114.012 37.6463C115.241 37.5676 116.144 36.9941 116.66 35.856C116.893 35.3432 116.997 34.8015 117.031 34.2429C117.076 33.5001 117.033 32.7653 116.755 32.0663C116.37 31.0984 115.714 30.3994 114.688 30.1067C114.052 29.9255 113.405 29.9663 112.767 30.0957C111.568 30.3397 110.796 31.0526 110.476 32.2435C110.34 32.7523 110.308 33.2721 110.292 33.7839V33.7849Z" fill="#222A3F"/>
<path d="M105.95 16.4274V17.3953H102.985V1.16597C103.171 1.11918 105.762 1.10324 106.11 1.14606C106.116 1.15203 106.122 1.15701 106.127 1.16299C106.133 1.16896 106.14 1.17494 106.142 1.1829C106.147 1.19883 106.149 1.21476 106.151 1.23169C106.153 1.24862 106.153 1.26455 106.153 1.28148C106.156 3.18729 106.158 5.09311 106.161 6.99892C106.161 7.00589 106.166 7.01386 106.184 7.05667C106.256 6.99195 106.318 6.93619 106.38 6.87844C107.116 6.18641 107.968 5.69552 108.973 5.55014C110.791 5.28727 112.495 5.58499 113.962 6.76791C114.923 7.54159 115.533 8.55524 115.836 9.74512C116.164 11.0326 116.157 12.328 115.774 13.5996C115.126 15.7503 113.667 17.0567 111.488 17.5456C110.325 17.8065 109.152 17.7975 107.99 17.5048C107.297 17.3295 106.669 17.0229 106.121 16.5599C106.083 16.528 106.043 16.4991 105.95 16.4274ZM112.785 11.5265C112.798 10.9868 112.738 10.4282 112.571 9.88453C112.346 9.15167 111.946 8.54428 111.245 8.19279C110.313 7.72679 109.324 7.60532 108.324 7.89806C107.256 8.21071 106.591 8.98041 106.268 10.0189C105.936 11.0804 105.949 12.1667 106.278 13.2262C106.629 14.3533 107.376 15.0981 108.561 15.3441C109.094 15.4546 109.633 15.4466 110.167 15.355C111.421 15.1409 112.252 14.4469 112.589 13.1973C112.734 12.6566 112.794 12.108 112.786 11.5235L112.785 11.5265Z" fill="#222A3F"/>
<path d="M127.198 10.1405C127.222 9.78997 127.212 9.47034 127.124 9.15569C126.979 8.63493 126.651 8.27348 126.163 8.05044C125.812 7.88913 125.44 7.81844 125.058 7.78458C124.426 7.72882 123.799 7.75073 123.183 7.90805C122.866 7.98871 122.577 8.1301 122.313 8.32327C121.996 8.55527 121.773 8.85698 121.651 9.23137C121.63 9.2941 121.607 9.35583 121.585 9.41757C121.582 9.42454 121.574 9.43051 121.548 9.45939C120.528 9.38869 119.49 9.317 118.437 9.24431C118.506 8.79126 118.651 8.38799 118.848 8.00364C119.206 7.30564 119.74 6.77592 120.416 6.38261C121.089 5.99029 121.816 5.74833 122.584 5.62187C123.728 5.43468 124.877 5.41178 126.027 5.53027C126.73 5.60295 127.415 5.76227 128.062 6.058C129.384 6.6634 130.132 7.69497 130.332 9.12682C130.371 9.40462 130.391 9.68741 130.392 9.9682C130.397 12.355 130.395 14.7417 130.395 17.1284C130.395 17.2101 130.395 17.2917 130.395 17.3913H127.409V16.1825C127.358 16.2044 127.333 16.2084 127.317 16.2223C126.535 16.9174 125.616 17.3346 124.598 17.5367C123.508 17.7538 122.411 17.7966 121.312 17.6034C120.438 17.4501 119.646 17.1135 118.996 16.4892C118.336 15.8549 118.038 15.0783 118.08 14.1632C118.136 12.9394 118.705 12.0274 119.725 11.3752C120.549 10.8484 121.46 10.5636 122.415 10.3974C123.399 10.2251 124.391 10.2042 125.386 10.1902C125.981 10.1823 126.577 10.1594 127.197 10.1425L127.198 10.1405ZM127.19 12.2335C127.068 12.2335 126.961 12.2315 126.855 12.2335C126.176 12.2494 125.497 12.2584 124.819 12.2862C124.381 12.3042 123.943 12.332 123.508 12.3848C123.029 12.4426 122.567 12.571 122.147 12.8219C121.655 13.1147 121.39 13.5468 121.34 14.1154C121.305 14.5107 121.444 14.8283 121.765 15.0643C121.988 15.2276 122.234 15.3431 122.499 15.4168C123.07 15.5761 123.648 15.5482 124.223 15.4606C124.998 15.3431 125.708 15.0623 126.309 14.5436C127.007 13.9411 127.297 13.1774 127.19 12.2325V12.2335Z" fill="#222A3F"/>
<path d="M93.7627 17.7179C92.4783 17.7219 91.3212 17.5427 90.2467 17.009C88.5843 16.1825 87.4451 14.908 87.0472 13.0629C86.7427 11.653 86.8084 10.252 87.4461 8.93563C88.2291 7.31858 89.5304 6.28701 91.2456 5.7782C92.34 5.45359 93.4612 5.4048 94.5924 5.50437C95.4918 5.58403 96.3584 5.79114 97.1622 6.20835C98.9759 7.14931 100.082 8.61899 100.372 10.6533C100.566 12.0144 100.4 13.3357 99.7161 14.5515C98.8963 16.0122 97.6408 16.9303 96.048 17.4033C95.2719 17.6333 94.476 17.7219 93.7627 17.7179ZM93.6393 15.4068C93.8373 15.3929 94.0373 15.3879 94.2333 15.362C95.2809 15.2216 96.1256 14.7377 96.635 13.7968C97.407 12.3709 97.411 10.9062 96.6857 9.46237C96.2847 8.6638 95.6231 8.14005 94.7476 7.91004C94.286 7.78856 93.8164 7.76566 93.3419 7.79354C91.8227 7.88614 90.7482 8.74445 90.3333 10.2121C90.0826 11.1003 90.0806 11.9965 90.3084 12.8887C90.4935 13.6145 90.8626 14.2329 91.4545 14.7049C92.0933 15.2137 92.8394 15.3889 93.6383 15.4058L93.6393 15.4068Z" fill="#222A3F"/>
<path d="M91.4167 28.0146H94.6103C94.6103 28.1242 94.6103 28.2217 94.6103 28.3183C94.6103 30.5806 94.6073 32.8429 94.6143 35.1052C94.6153 35.4089 94.6471 35.7185 94.7068 36.0163C94.853 36.7501 95.3087 37.2161 96.024 37.4242C96.5384 37.5736 97.0667 37.6373 97.598 37.5706C98.365 37.475 98.9779 37.0817 99.4873 36.5161C99.8305 36.1357 100.08 35.6986 100.244 35.2147C100.283 35.1002 100.296 34.9727 100.296 34.8503C100.299 32.6786 100.298 30.5079 100.298 28.3362V28.0445C100.485 27.9897 103.112 27.9748 103.466 28.0246V39.6327H100.306V38.402C100.217 38.4677 100.164 38.4996 100.117 38.5404C98.9361 39.579 97.5512 40.0141 95.9932 39.9494C95.4619 39.9275 94.9366 39.8707 94.4213 39.7323C92.907 39.325 91.9629 38.3612 91.5908 36.8377C91.4605 36.303 91.4167 35.7584 91.4167 35.2107C91.4147 32.9066 91.4167 30.6025 91.4167 28.2994C91.4167 28.2098 91.4167 28.1202 91.4167 28.0126V28.0146Z" fill="#222A3F"/>
<path d="M132.831 28.0077H136.305C133.876 33.3537 131.456 38.6778 129.037 44H125.619C125.666 43.8974 125.701 43.8158 125.741 43.7361C126.455 42.3152 127.166 40.8943 127.886 39.4764C127.969 39.3151 127.976 39.1866 127.896 39.0174C126.204 35.4397 124.518 31.8591 122.831 28.2795C122.794 28.1988 122.761 28.1162 122.718 28.0146H126.182C127.302 30.6055 128.427 33.2063 129.551 35.8062C129.57 35.8062 129.589 35.8062 129.607 35.8062C130.68 33.2083 131.754 30.6115 132.831 28.0057V28.0077Z" fill="#222A3F"/>
<path d="M87.3924 37.3008V39.6318C87.3148 39.6387 87.2511 39.6497 87.1864 39.6497C86.3905 39.6487 85.5956 39.6477 84.7997 39.6417C84.35 39.6387 83.9083 39.572 83.4795 39.4346C82.403 39.0881 81.7324 38.2407 81.6419 37.1116C81.627 36.9214 81.619 36.7312 81.619 36.5411C81.617 34.5855 81.619 32.6299 81.619 30.6743V30.3496H79.2611V28.0057C79.6441 28.0047 80.0302 28.0027 80.4162 28.0017C80.8052 28.0017 81.1942 28.0017 81.615 28.0017V25.4059C82.6816 25.0275 83.7232 24.6581 84.8037 24.2737V27.9968H87.7237V30.3437H84.8206C84.8146 30.4502 84.8066 30.5299 84.8066 30.6105C84.8066 32.5741 84.8066 34.5377 84.8066 36.5022C84.8066 36.5849 84.8086 36.6685 84.8146 36.7502C84.8405 37.0807 84.9937 37.247 85.32 37.2918C85.4016 37.3028 85.4852 37.3008 85.5677 37.3008C86.0901 37.3008 86.6124 37.3008 87.1337 37.3008H87.3924Z" fill="#222A3F"/>
<path d="M80.9355 1.1391H84.0664C84.1182 1.3253 84.1381 16.9552 84.0893 17.3674C83.9152 17.4172 81.3703 17.4371 80.9484 17.3913C80.9017 17.214 80.8848 1.54436 80.9355 1.1391Z" fill="#222A3F"/>
<path d="M136.872 17.3953H133.71V1.16796C133.902 1.11618 136.607 1.10821 136.872 1.159V17.3963V17.3953Z" fill="#222A3F"/>
</svg>
