<svg width="144" height="20" viewBox="0 0 144 20" fill="none" xmlns="http://www.w3.org/2000/svg">
<path d="M109.454 1.12109H104.102V19.23H106.57V12.7557H109.422C114.262 12.7557 116.826 10.7044 116.826 6.8262C116.89 2.94801 114.518 1.12109 109.454 1.12109ZM114.55 7.08261C114.55 10.0954 111.954 10.7685 109.743 10.8326H106.57V3.58903H109.518C112.98 3.58903 114.55 4.71082 114.55 7.08261Z" fill="#FEFEFF"/>
<path d="M74.6479 11.1531L68.8145 1.1852L68.7504 1.12109H66.1543V19.0697V19.23H68.6222V5.89672L73.7504 14.3903H75.5132L80.7055 5.70441V19.23H83.1735V1.12109H80.5773L74.6479 11.1531Z" fill="#FEFEFF"/>
<path d="M50.5117 15.2236V1.12109H48.0117V19.0697V19.23H50.6079L59.9027 5.15954V19.23H62.3706V1.12109H59.8065L50.5117 15.2236Z" fill="#FEFEFF"/>
<path d="M43.6217 6.69739H44.7114V6.60124L45.064 1.12049H42.6602L42.7243 2.49869C41.5063 1.50511 39.3589 0.832031 36.6025 0.832031C31.891 0.832031 28.2051 4.58202 28.2051 9.99866C28.2051 16.6974 32.564 19.8063 37.1794 19.8063C42.1473 19.8063 44.6794 16.7294 44.6794 13.8448V13.6846H41.923V13.8448C41.923 15.3833 40.3525 17.5627 37.2115 17.5627C33.9422 17.5627 30.8653 15.0627 30.8653 9.99866C30.8653 5.60766 33.814 3.04356 36.6025 3.04356C40.0961 3.04356 41.923 5.12689 41.923 6.50509V6.66534H43.6217V6.69739Z" fill="#FEFEFF"/>
<path d="M89.1989 1.12109V3.58903H91.6027L85.3848 19.23H87.7565L89.6476 14.3903H98.077L99.968 19.23H102.468L95.1283 1.12109H89.1989ZM93.8142 4.03775L96.9232 11.9223H90.7053L93.8142 4.03775Z" fill="#FEFEFF"/>
<path d="M130.192 1.26562H120.16V19.2143H122.628V3.73356H130.192V1.26562Z" fill="#FEFEFF"/>
<path d="M133.72 1.07422V3.54216H136.284L128.688 19.2152H131.732L139.104 3.54216H140.963V19.1831H143.431V1.07422H133.72Z" fill="#FEFEFF"/>
<path d="M19.5828 2.01922L18.461 2.66025L21.7302 3.26922L21.4417 5.5769L17.211 4.87178L23.9097 17.8204L24.0058 17.9807L22.2751 19.4551L14.9033 10.8333L12.82 8.55766L12.1789 7.88459H3.39693V5.54485H9.99947L9.06999 4.55127H2.05078V2.24358H9.5828H9.61486C9.77511 2.24358 10.0636 2.24358 10.0636 2.24358L16.1853 8.97433L16.2815 9.10253L18.6853 11.9871L13.5251 2.78845L13.5571 2.7564L18.4289 0L19.5828 2.01922Z" fill="#FEFEFF"/>
<path d="M14.6474 8.55876C11.7307 8.49465 8.58971 8.81517 5.99357 9.58439C4.42306 10.0331 2.98076 10.6741 1.89102 11.5716C0.801279 12.501 0 13.9113 0 15.6421C0 17.9818 1.85897 20.001 4.26281 20.001C6.92305 20.001 7.91664 18.1741 7.91664 18.1741L5.99357 16.6357C5.99357 16.6357 5.48075 17.5331 4.35896 17.5331C3.30127 17.5331 2.46794 16.6998 2.46794 15.6421C2.46794 13.1741 5.32049 12.4369 6.69869 12.0203C9.45509 11.219 13.0448 10.9305 16.1538 11.187L16.2179 10.4818C15.7051 9.8408 15.2243 9.16773 14.6474 8.55876Z" fill="#FEFEFF"/>
</svg>
