<svg width="303" height="72" viewBox="0 0 303 72" fill="none" xmlns="http://www.w3.org/2000/svg">
<path d="M0 17.7112C0 17.4929 0.00984603 17.2762 0.0295381 17.0578C0.0787682 16.5185 0.121434 15.9792 0.185434 15.4431C0.553019 12.3701 1.6049 9.54319 3.44447 7.04374C6.51807 2.86442 10.6058 0.418747 15.8751 0.0635452C15.9817 0.0570278 16.0868 0.0211817 16.1934 0C34.5431 0 52.8929 0 71.2426 0C71.2902 0.0228111 71.3345 0.0570278 71.3853 0.0684333C72.2846 0.278621 72.8508 0.899409 73.0034 1.84607C73.1363 2.6689 72.7425 3.55853 72.022 3.97565C71.7923 4.10926 71.5199 4.18421 71.2573 4.23961C71.0342 4.28686 70.7946 4.27382 70.5632 4.27382C52.8026 4.27382 35.042 4.27382 17.2814 4.27382C11.3475 4.10274 6.22105 8.07839 4.49307 13.5612C2.89145 18.6481 4.31748 24.4551 8.45281 28.0902C10.4286 29.8271 12.7293 30.8536 15.3532 31.1388C15.7684 31.1844 16.1852 31.1974 16.602 31.1974C32.9284 31.2007 49.2564 31.1974 65.5827 31.204C66.5936 31.204 67.6077 31.2203 68.612 31.3196C71.4936 31.6048 74.0946 32.6508 76.4052 34.3714C80.0006 37.0469 82.2471 40.6087 83.1743 44.9493C84.2131 49.8113 83.473 54.4273 80.831 58.6718C78.4991 62.4177 75.1941 64.9448 70.8816 66.1164C69.5852 66.4683 68.2428 66.6361 66.8988 66.6361C46.1959 66.6394 25.493 66.6361 4.79173 66.641C3.97123 66.641 3.33944 66.3445 2.94068 65.6878C2.46643 64.909 2.51238 63.9004 3.05555 63.1688C3.41985 62.6784 3.922 62.4095 4.5423 62.3981C4.69327 62.3949 4.8426 62.3981 4.99358 62.3981C25.475 62.3981 45.9563 62.377 66.4377 62.4112C73.046 62.4226 78.2201 57.7414 79.4476 51.9702C80.4027 47.4797 79.4394 43.3981 76.461 39.8608C74.4967 37.5292 71.9728 36.1035 68.9484 35.6098C68.3396 35.5104 67.721 35.4713 67.104 35.4713C50.7349 35.4647 34.3659 35.4664 17.9985 35.4647C16.7678 35.4647 15.5403 35.4501 14.3194 35.2562C11.2573 34.7674 8.55948 33.4997 6.23254 31.481C3.06047 28.7306 1.13229 25.2617 0.369226 21.1638C0.208408 20.3035 0.141126 19.4253 0.0475891 18.5519C0.0213331 18.3027 0.00492301 18.0534 0.00492301 17.8024V17.7128L0 17.7112Z" fill="white"/>
<path d="M32.0882 8.0508V17.594C32.4607 17.4816 32.7003 17.2372 32.9809 17.0661C33.2713 16.8885 33.5487 16.6897 33.8326 16.5007C34.1263 16.3035 34.4217 16.1064 34.7154 15.9092C34.9993 15.7202 35.2816 15.5296 35.5655 15.3406C35.8477 15.1516 36.1316 14.9658 36.4418 14.7605C37.8596 15.7104 39.2725 16.6538 40.7593 17.6494C40.7806 16.939 40.7691 16.3084 40.7707 15.6779C40.7724 15.0408 40.7707 14.4037 40.7707 13.7666V8.05732H70.4073C70.4942 8.37342 70.5041 27.0264 70.4122 27.4402C70.2727 27.4402 70.125 27.4402 69.9773 27.4402C52.2725 27.4402 34.5694 27.4468 16.8646 27.4337C13.814 27.4321 11.4181 26.0716 9.64253 23.6617C6.56729 19.4857 7.24995 13.4994 11.1539 10.1755C12.813 8.76283 14.7411 8.03125 16.9384 8.03125C21.8319 8.03125 26.727 8.03125 31.6205 8.03125C31.7665 8.03125 31.9126 8.04266 32.0882 8.0508Z" fill="#7BAAD0"/>
<path d="M5.17409 44.0255V39.2173C5.38906 39.2173 5.57942 39.2173 5.76813 39.2173C26.0165 39.2173 46.2649 39.2173 66.5132 39.2173C70.1759 39.2173 72.8721 40.9037 74.6493 44.0092C76.7793 47.734 76.2181 52.5129 73.366 55.6462C71.8924 57.2641 70.066 58.2532 67.8835 58.5611C67.4387 58.6246 66.9842 58.6426 66.5345 58.6426C46.2452 58.6458 25.9558 58.6458 5.66639 58.6458C5.51706 58.6458 5.36937 58.6458 5.23153 58.6458C5.12978 58.3232 5.11337 49.5833 5.21183 49.1466C27.4228 49.5556 49.6404 49.9629 71.899 50.3719C72.1353 49.5409 72.1238 48.7181 71.9925 47.8594C49.7093 48.2684 27.4524 48.6757 5.17573 49.0847V44.0891C27.0881 44.4899 48.9725 44.8907 70.9226 45.2932C70.8405 45.1628 70.8061 45.0928 70.7585 45.0341C69.7066 43.7567 68.3807 43.017 66.6888 43.0219C63.3395 43.0333 59.9902 43.0316 56.6409 43.0756C52.2266 43.1343 47.8107 43.2337 43.3964 43.3151C40.4721 43.3689 37.5478 43.4243 34.6219 43.4781C31.6977 43.5318 28.7734 43.5872 25.8475 43.641C21.4463 43.7225 17.0468 43.8023 12.6456 43.8854C10.3088 43.9294 7.972 43.9767 5.63521 44.0223C5.48916 44.0255 5.34147 44.0223 5.17409 44.0223V44.0255ZM5.81572 53.7463C5.81572 53.7757 5.81572 53.8034 5.81572 53.8327C5.89613 53.8359 5.97654 53.8425 6.05695 53.8441C7.56011 53.8718 9.06327 53.8979 10.5664 53.9256C14.9939 54.007 19.4213 54.0885 23.8487 54.17C26.7451 54.2237 29.6431 54.2791 32.5395 54.3313C36.9669 54.4127 41.3944 54.4958 45.8218 54.5757C48.4457 54.6229 51.0697 54.6474 53.692 54.7125C58.0243 54.8201 62.3565 54.8673 66.6888 54.8364C68.3364 54.825 69.6607 54.1195 70.706 52.873C70.7716 52.7948 70.8176 52.7019 70.9127 52.5536C49.1678 52.9512 27.4934 53.3488 5.81736 53.7463H5.81572Z" fill="#7BAAD0"/>
<path d="M127.941 10.9101H122.552C122.524 10.8417 122.491 10.783 122.475 10.7195C121.871 8.49051 120.409 7.10066 118.2 6.47824C116.085 5.88352 113.928 5.79391 111.793 6.3039C108.698 7.04363 106.731 9.02494 105.802 12.0164C105.297 13.6458 105.249 15.3289 105.426 17.0121C105.5 17.7095 105.625 18.4117 105.819 19.0846C106.578 21.7324 108.324 23.4367 110.966 24.2513C112.602 24.7565 114.286 24.8998 115.988 24.8672C117.803 24.833 119.582 24.5772 121.283 23.9206C121.74 23.7446 122.186 23.5442 122.631 23.3585V18.4264C122.186 18.4019 121.754 18.4166 121.323 18.415C120.885 18.4117 120.448 18.415 120.01 18.415H114.775C114.673 18.1021 114.647 14.9412 114.739 14.4035H127.993C128.003 14.5012 128.025 14.6039 128.025 14.7082C128.026 18.2341 128.023 21.76 128.033 25.2844C128.033 25.5434 127.921 25.6689 127.723 25.796C125.737 27.0685 123.571 27.9011 121.267 28.3932C118.712 28.939 116.122 29.0906 113.52 28.9488C111.235 28.825 109.018 28.3688 106.967 27.3227C103.222 25.4115 100.927 22.4037 100.2 18.2748C99.7041 15.4691 99.8633 12.6926 100.966 10.0417C102.601 6.11652 105.548 3.61219 109.654 2.44719C111.551 1.9095 113.497 1.79871 115.461 1.85899C117.37 1.91765 119.247 2.15391 121.06 2.76655C122.77 3.34497 124.29 4.22483 125.509 5.56906C126.759 6.9475 127.468 8.58664 127.847 10.3822C127.88 10.5402 127.905 10.6999 127.943 10.9069L127.941 10.9101Z" fill="white"/>
<path d="M242.237 55.9426H247.539C247.568 56.0485 247.596 56.1511 247.623 56.2522C247.734 56.6709 247.82 57.0978 247.959 57.5068C248.547 59.2274 249.715 60.3386 251.504 60.7965C252.569 61.0702 253.65 61.1924 254.746 61.212C256.213 61.238 257.675 61.1924 259.093 60.7802C259.653 60.6172 260.193 60.3761 260.718 60.1235C260.995 59.9916 261.245 59.7814 261.471 59.5696C262.316 58.7793 262.452 57.6681 261.847 56.6807C261.533 56.1707 261.089 55.7943 260.588 55.4782C260.032 55.1279 259.438 54.8525 258.803 54.6749C256.873 54.1307 254.935 53.611 253.01 53.0521C251.202 52.5274 249.401 51.9816 247.606 51.4162C246.59 51.0952 245.703 50.5331 244.928 49.8048C243.835 48.7767 243.262 47.5106 243.194 46.0181C243.089 43.7452 244.008 41.9659 245.852 40.6477C247.352 39.5773 249.032 38.9239 250.839 38.5752C252.798 38.1972 254.776 38.1646 256.76 38.3015C258.251 38.4041 259.715 38.6501 261.13 39.1438C262.462 39.6098 263.665 40.2893 264.653 41.306C265.871 42.5606 266.529 44.0841 266.819 45.7802C266.865 46.0475 266.89 46.3179 266.919 46.5868C266.924 46.6373 266.908 46.6894 266.898 46.7595H261.655C261.624 46.6731 261.588 46.5754 261.553 46.476C261.465 46.2202 261.387 45.9595 261.286 45.7086C260.624 44.0629 259.423 43.038 257.682 42.6356C256.258 42.3064 254.812 42.2494 253.363 42.3537C252.657 42.4042 251.947 42.4987 251.259 42.6568C250.762 42.7724 250.27 42.9777 249.822 43.227C248.865 43.7615 248.491 44.6218 248.591 45.6923C248.645 46.2788 248.945 46.7367 249.375 47.1212C249.828 47.5269 250.353 47.8218 250.929 48.0043C252.268 48.428 253.609 48.85 254.961 49.2296C257.26 49.8748 259.572 50.4744 261.827 51.2614C262.9 51.6362 263.941 52.0745 264.868 52.7441C265.731 53.3666 266.458 54.1047 266.964 55.0481C268.022 57.0229 267.835 60.1806 265.797 62.2026C264.717 63.2747 263.417 63.9623 261.991 64.443C260.665 64.8894 259.297 65.1306 257.905 65.2609C256.459 65.3962 255.012 65.4141 253.563 65.331C251.645 65.2218 249.758 64.9432 247.962 64.2247C244.731 62.9293 242.862 60.5667 242.365 57.1434C242.309 56.7573 242.281 56.3679 242.235 55.9344L242.237 55.9426Z" fill="white"/>
<path d="M100.963 55.9507H106.275C106.326 56.1771 106.358 56.4036 106.429 56.6203C106.606 57.1596 106.759 57.7136 106.995 58.2269C107.54 59.4049 108.454 60.2 109.693 60.6286C110.604 60.9447 111.544 61.1092 112.499 61.1695C114.056 61.2673 115.619 61.2738 117.153 60.9398C117.777 60.8045 118.397 60.6155 118.981 60.3613C119.422 60.1691 119.843 59.8823 120.202 59.5581C121.037 58.8053 121.173 57.7153 120.611 56.7425C120.346 56.2863 119.972 55.9327 119.544 55.6329C118.935 55.2077 118.272 54.8883 117.558 54.6863C115.615 54.1355 113.664 53.6141 111.726 53.052C109.918 52.5274 108.114 51.9897 106.322 51.4129C105.118 51.0251 104.089 50.3375 103.252 49.3876C102.4 48.423 101.977 47.2857 101.921 46.0099C101.821 43.719 102.758 41.9365 104.622 40.62C106.116 39.5658 107.784 38.9205 109.578 38.5751C111.537 38.1987 113.515 38.1678 115.499 38.303C116.99 38.4057 118.454 38.6517 119.869 39.1486C121.2 39.6163 122.403 40.2957 123.389 41.3157C124.605 42.5719 125.261 44.0954 125.547 45.7932C125.598 46.0979 125.625 46.4075 125.663 46.7105C125.337 46.7985 121.208 46.8295 120.376 46.7561C120.346 46.6665 120.312 46.5671 120.277 46.4661C120.194 46.2233 120.118 45.9757 120.025 45.7362C119.378 44.1052 118.203 43.0477 116.477 42.6567C114.342 42.1727 112.192 42.1727 110.054 42.6404C109.542 42.7528 109.037 42.9646 108.574 43.2139C107.611 43.7337 107.179 44.6657 107.322 45.7443C107.394 46.2967 107.675 46.735 108.08 47.1016C108.541 47.5203 109.078 47.8201 109.667 48.0075C110.901 48.4018 112.14 48.7815 113.382 49.1481C115.619 49.808 117.865 50.4369 120.099 51.1114C121.17 51.4357 122.214 51.8414 123.162 52.454C123.807 52.8712 124.405 53.3404 124.91 53.9188C125.903 55.0578 126.356 56.3824 126.318 57.8847C126.254 60.3923 125.01 62.1862 122.905 63.4555C121.666 64.2034 120.304 64.6401 118.891 64.9285C116.584 65.401 114.252 65.4564 111.912 65.3065C110.423 65.212 108.953 64.9773 107.527 64.5227C106.212 64.104 105 63.5028 103.951 62.5985C102.318 61.1907 101.442 59.3837 101.112 57.2916C101.043 56.855 101.014 56.4118 100.964 55.9425L100.963 55.9507Z" fill="white"/>
<path d="M287.624 49.9856C292.75 54.9388 297.847 59.8644 303 64.8421C302.828 64.86 302.728 64.8796 302.626 64.8796C300.438 64.8812 298.251 64.8796 296.063 64.8845C295.829 64.8845 295.655 64.8225 295.486 64.6531C293.33 62.4779 291.167 60.3076 289.004 58.1373C287.428 56.5551 285.85 54.9763 284.274 53.3926C284.169 53.2866 284.089 53.1579 284.002 53.0439C283.887 53.1172 283.84 53.1416 283.8 53.1742C282.775 54.028 281.754 54.8899 280.718 55.7339C280.525 55.8904 280.518 56.0663 280.518 56.2716C280.518 58.9568 280.518 61.642 280.518 64.3272V64.7997C280.205 64.8942 275.748 64.9252 275.155 64.8405V38.7609H280.512V50.5558C280.694 50.4124 280.809 50.3293 280.917 50.2365C285.167 46.5492 289.421 42.8652 293.661 39.1666C294.009 38.8635 294.347 38.7136 294.823 38.7218C296.751 38.7494 298.679 38.7332 300.606 38.7332H301.003C301.014 38.7576 301.026 38.782 301.037 38.8065C296.575 42.5247 292.114 46.2413 287.622 49.9839L287.624 49.9856Z" fill="white"/>
<path d="M192.879 47.9179V38.3145C193.197 38.2265 197.579 38.2037 198.118 38.2819V64.8112C197.815 64.9008 193.721 64.9187 193.227 64.8258V63.3073C193.128 63.3545 193.076 63.3676 193.041 63.3985C191.851 64.4267 190.448 64.9986 188.908 65.2316C186.994 65.5216 185.084 65.4629 183.228 64.8894C179.765 63.8222 177.66 61.4677 176.849 57.9988C176.341 55.822 176.382 53.624 177.163 51.5074C178.343 48.3122 180.627 46.3098 183.994 45.5831C185.489 45.2604 187.004 45.1985 188.51 45.5146C190.048 45.8356 191.359 46.5867 192.5 47.6475C192.588 47.7306 192.68 47.812 192.77 47.8935C192.779 47.9016 192.797 47.9 192.879 47.9196V47.9179ZM181.918 55.2843C181.946 56.1967 182.001 57.0896 182.242 57.9597C182.767 59.8563 183.971 61.049 185.934 61.4596C186.636 61.6062 187.344 61.647 188.054 61.603C190.082 61.4742 191.571 60.5357 192.423 58.6734C192.807 57.8342 192.979 56.9479 193.035 56.0338C193.108 54.8183 193.038 53.6158 192.578 52.472C191.943 50.8883 190.862 49.7444 189.17 49.2654C188.12 48.9689 187.053 49.0357 186.001 49.2475C184.024 49.6467 182.75 50.8133 182.222 52.762C181.997 53.5946 181.945 54.4452 181.918 55.2827V55.2843Z" fill="white"/>
<path d="M174.757 26.8812V28.4649H169.867V1.90791C170.174 1.83133 174.447 1.80526 175.021 1.87533C175.031 1.8851 175.041 1.89325 175.049 1.90303C175.059 1.9128 175.071 1.92258 175.074 1.93561C175.082 1.96168 175.085 1.98775 175.089 2.01545C175.092 2.04315 175.092 2.06922 175.092 2.09692C175.097 5.21552 175.1 8.33413 175.105 11.4527C175.105 11.4641 175.113 11.4772 175.143 11.5472C175.261 11.4413 175.364 11.3501 175.466 11.2556C176.68 10.1232 178.085 9.3199 179.742 9.08201C182.742 8.65186 185.552 9.13904 187.972 11.0747C189.557 12.3407 190.563 13.9994 191.064 15.9465C191.604 18.0533 191.592 20.1731 190.96 22.2538C189.892 25.7732 187.485 27.911 183.891 28.711C181.973 29.1379 180.038 29.1232 178.121 28.6442C176.979 28.3574 175.944 27.8556 175.039 27.0979C174.977 27.0458 174.91 26.9985 174.757 26.8812ZM186.031 18.8615C186.052 17.9783 185.954 17.0643 185.678 16.1746C185.307 14.9754 184.647 13.9815 183.491 13.4063C181.953 12.6438 180.322 12.445 178.673 12.9241C176.912 13.4357 175.814 14.6952 175.281 16.3946C174.734 18.1315 174.755 19.9091 175.299 21.6428C175.876 23.4872 177.109 24.706 179.063 25.1084C179.943 25.2893 180.832 25.2763 181.713 25.1264C183.781 24.7761 185.151 23.6404 185.708 21.5955C185.947 20.7108 186.046 19.813 186.032 18.8566L186.031 18.8615Z" fill="white"/>
<path d="M209.804 16.5934C209.843 16.0198 209.827 15.4968 209.683 14.9819C209.443 14.1298 208.902 13.5383 208.097 13.1733C207.518 12.9094 206.904 12.7937 206.274 12.7383C205.232 12.6471 204.198 12.6829 203.181 12.9403C202.659 13.0723 202.182 13.3037 201.747 13.6198C201.223 13.9994 200.856 14.4931 200.654 15.1058C200.619 15.2084 200.582 15.3094 200.546 15.4105C200.541 15.4219 200.527 15.4316 200.485 15.4789C198.803 15.3632 197.09 15.2459 195.353 15.1269C195.467 14.3856 195.706 13.7257 196.031 13.0968C196.622 11.9546 197.503 11.0878 198.617 10.4442C199.728 9.80218 200.926 9.40625 202.193 9.19932C204.08 8.893 205.976 8.85552 207.873 9.04942C209.033 9.16836 210.162 9.42906 211.228 9.91298C213.409 10.9036 214.643 12.5917 214.973 14.9347C215.037 15.3893 215.07 15.852 215.072 16.3115C215.08 20.2171 215.077 24.1227 215.077 28.0283C215.077 28.1619 215.077 28.2955 215.077 28.4584H210.152V26.4804C210.068 26.5162 210.027 26.5227 210.001 26.5455C208.711 27.6828 207.195 28.3655 205.516 28.6963C203.718 29.0515 201.908 29.1216 200.096 28.8055C198.653 28.5545 197.347 28.0038 196.276 26.9822C195.186 25.9443 194.695 24.6734 194.764 23.176C194.856 21.1735 195.795 19.681 197.479 18.6138C198.837 17.7519 200.34 17.2859 201.914 17.0138C203.537 16.7319 205.175 16.6977 206.816 16.6748C207.797 16.6618 208.78 16.6243 209.802 16.5966L209.804 16.5934ZM209.791 20.0183C209.589 20.0183 209.414 20.015 209.238 20.0183C208.119 20.0444 206.998 20.059 205.88 20.1047C205.158 20.134 204.435 20.1796 203.718 20.266C202.928 20.3605 202.165 20.5707 201.473 20.9813C200.662 21.4603 200.224 22.1674 200.142 23.0978C200.084 23.7447 200.313 24.2644 200.843 24.6506C201.21 24.9178 201.615 25.1068 202.054 25.2274C202.996 25.4881 203.949 25.4425 204.897 25.2991C206.176 25.1068 207.346 24.6473 208.337 23.7984C209.489 22.8127 209.967 21.5629 209.791 20.0167V20.0183Z" fill="white"/>
<path d="M154.655 28.9929C152.536 28.9994 150.628 28.7061 148.856 27.8328C146.113 26.4804 144.234 24.3948 143.578 21.3756C143.076 19.0684 143.184 16.7759 144.236 14.6219C145.528 11.9758 147.674 10.2878 150.503 9.45518C152.308 8.92401 154.158 8.84417 156.023 9.00711C157.507 9.13746 158.936 9.47637 160.262 10.1591C163.254 11.6988 165.078 14.1038 165.556 17.4326C165.876 19.6599 165.602 21.8221 164.475 23.8115C163.122 26.2018 161.051 27.7041 158.424 28.478C157.144 28.8544 155.831 28.9994 154.655 28.9929ZM154.451 25.2111C154.778 25.1883 155.108 25.1802 155.431 25.1378C157.159 24.9081 158.552 24.1162 159.392 22.5765C160.666 20.2432 160.672 17.8464 159.476 15.4838C158.815 14.1771 157.724 13.32 156.279 12.9437C155.518 12.7449 154.743 12.7074 153.961 12.753C151.455 12.9045 149.683 14.3091 148.998 16.7107C148.585 18.1641 148.581 19.6306 148.957 21.0905C149.262 22.2783 149.871 23.2901 150.848 24.0624C151.901 24.895 153.132 25.1818 154.45 25.2095L154.451 25.2111Z" fill="white"/>
<path d="M150.785 45.8422H156.053C156.053 46.0214 156.053 46.1811 156.053 46.3391C156.053 50.041 156.048 53.743 156.059 57.4449C156.061 57.9418 156.114 58.4486 156.212 58.9357C156.453 60.1366 157.205 60.8991 158.385 61.2397C159.233 61.4841 160.105 61.5884 160.981 61.4792C162.246 61.3228 163.257 60.6792 164.097 59.7537C164.663 59.1313 165.075 58.416 165.346 57.6241C165.41 57.4367 165.431 57.2282 165.431 57.0278C165.436 53.4741 165.435 49.9221 165.435 46.3684V45.891C165.743 45.8014 170.075 45.777 170.659 45.8585V64.8536H165.448V62.8397C165.3 62.9472 165.213 62.9994 165.136 63.0662C163.188 64.7656 160.904 65.4776 158.334 65.3717C157.458 65.3359 156.591 65.243 155.741 65.0165C153.243 64.3501 151.686 62.7729 151.072 60.28C150.857 59.405 150.785 58.5137 150.785 57.6176C150.782 53.8472 150.785 50.0769 150.785 46.3082C150.785 46.1615 150.785 46.0149 150.785 45.8389V45.8422Z" fill="white"/>
<path d="M219.095 45.8306H224.826C220.818 54.5787 216.828 63.2909 212.837 71.9999H207.2C207.277 71.8321 207.334 71.6984 207.4 71.5681C208.578 69.243 209.752 66.9179 210.94 64.5977C211.076 64.3337 211.087 64.1235 210.956 63.8465C208.165 57.9922 205.383 52.133 202.602 46.2755C202.539 46.1435 202.485 46.0083 202.415 45.8421H208.129C209.976 50.0817 211.831 54.3376 213.685 58.5918C213.716 58.5918 213.747 58.5918 213.777 58.5918C215.548 54.3408 217.318 50.0914 219.095 45.8274V45.8306Z" fill="white"/>
<path d="M144.147 61.0377V64.852C144.019 64.8634 143.914 64.8814 143.808 64.8814C142.495 64.8797 141.184 64.8781 139.871 64.8683C139.129 64.8634 138.401 64.7543 137.693 64.5294C135.918 63.9624 134.812 62.5758 134.662 60.7281C134.638 60.4169 134.625 60.1057 134.625 59.7945C134.621 56.5944 134.625 53.3943 134.625 50.1943V49.6631H130.736V45.8276C131.367 45.8259 132.004 45.8227 132.641 45.821C133.282 45.821 133.924 45.821 134.618 45.821V41.5733C136.377 40.9541 138.095 40.3496 139.878 39.7207V45.8129H144.694V49.6533H139.905C139.896 49.8277 139.882 49.958 139.882 50.09C139.882 53.3031 139.882 56.5162 139.882 59.7309C139.882 59.8662 139.886 60.003 139.896 60.1366C139.938 60.6776 140.191 60.9497 140.729 61.023C140.864 61.0409 141.002 61.0377 141.138 61.0377C141.999 61.0377 142.861 61.0377 143.721 61.0377H144.147Z" fill="white"/>
<path d="M133.497 1.86401H138.662C138.747 2.1687 138.78 27.7448 138.699 28.4194C138.412 28.5009 134.214 28.5335 133.519 28.4585C133.442 28.1685 133.414 2.52717 133.497 1.86401Z" fill="white"/>
<path d="M225.761 28.465H220.544V1.91127C220.861 1.82654 225.323 1.81351 225.761 1.89661V28.4667V28.465Z" fill="white"/>
</svg>
