<svg width="115" height="16" viewBox="0 0 115 16" fill="none" xmlns="http://www.w3.org/2000/svg">
<path d="M87.5633 0.896484H83.2812V15.3836H85.2556V10.2041H87.5376C91.4094 10.2041 93.4607 8.56312 93.4607 5.46057C93.512 2.35802 91.6146 0.896484 87.5633 0.896484ZM91.6402 5.6657C91.6402 8.07594 89.5633 8.6144 87.7941 8.66569H85.2556V2.87084H87.6146C90.3838 2.87084 91.6402 3.76827 91.6402 5.6657Z" fill="#796F64"/>
<path d="M59.7167 8.9221L55.0501 0.947766L54.9988 0.896484H52.9219V15.2554V15.3836H54.8962V4.71698L58.9988 11.5118H60.409L64.5629 4.56314V15.3836H66.5372V0.896484H64.4603L59.7167 8.9221Z" fill="#796F64"/>
<path d="M40.4111 12.1785V0.896484H38.4111V15.2554V15.3836H40.488L47.9239 4.12724V15.3836H49.8983V0.896484H47.847L40.4111 12.1785Z" fill="#796F64"/>
<path d="M34.8992 5.35831H35.771V5.28138L36.0531 0.896784H34.13L34.1813 1.99934C33.2069 1.20448 31.489 0.666016 29.2838 0.666016C25.5146 0.666016 22.5659 3.66601 22.5659 7.99932C22.5659 13.3583 26.0531 15.8454 29.7454 15.8454C33.7197 15.8454 35.7454 13.3839 35.7454 11.0762V10.948H33.5402V11.0762C33.5402 12.307 32.2838 14.0506 29.771 14.0506C27.1556 14.0506 24.6941 12.0506 24.6941 7.99932C24.6941 4.48652 27.0531 2.43524 29.2838 2.43524C32.0787 2.43524 33.5402 4.1019 33.5402 5.20446V5.33267H34.8992V5.35831Z" fill="#796F64"/>
<path d="M71.3594 0.896484V2.87084H73.2824L68.3081 15.3836H70.2055L71.7184 11.5118H78.4619L79.9747 15.3836H81.9747L76.1029 0.896484H71.3594ZM75.0517 3.22981L77.5388 9.53748H72.5645L75.0517 3.22981Z" fill="#796F64"/>
<path d="M104.154 1.01171H96.1284V15.3706H98.1028V2.98606H104.154V1.01171Z" fill="#796F64"/>
<path d="M106.974 0.859373V2.83372H109.026L102.949 15.3721H105.385L111.282 2.83372H112.769V15.3465H114.744V0.859373H106.974Z" fill="#796F64"/>
<path d="M15.6682 1.61538L14.7707 2.1282L17.3861 2.61538L17.1553 4.46152L13.7707 3.89742L19.1297 14.2564L19.2066 14.3846L17.822 15.564L11.9246 8.66663L10.2579 6.84613L9.74511 6.30767H2.7195V4.43588H8.00153L7.25794 3.64101H1.64258V1.79487H7.6682H7.69384C7.82204 1.79487 8.05281 1.79487 8.05281 1.79487L12.9502 7.17946L13.0272 7.28202L14.9502 9.58971L10.822 2.23076L10.8477 2.20512L14.7451 0L15.6682 1.61538Z" fill="#796F64"/>
<path d="M11.7199 6.84622C9.38654 6.79494 6.87372 7.05135 4.79681 7.66673C3.5404 8.02571 2.38656 8.53853 1.51477 9.25647C0.642977 10.0001 0.00195312 11.1283 0.00195312 12.5129C0.00195312 14.3847 1.48913 16 3.4122 16C5.5404 16 6.33526 14.5385 6.33526 14.5385L4.79681 13.3077C4.79681 13.3077 4.38655 14.0257 3.48912 14.0257C2.64297 14.0257 1.97631 13.359 1.97631 12.5129C1.97631 10.5385 4.25835 9.94878 5.36091 9.61544C7.56603 8.97442 10.4378 8.74365 12.925 8.94878L12.9763 8.38468C12.566 7.87186 12.1814 7.3334 11.7199 6.84622Z" fill="#796F64"/>
</svg>
